<?xml version="1.0" standalone="no"?>
<!DOCTYPE svg PUBLIC "-//W3C//DTD SVG 1.0//EN" "http://www.w3.org/TR/2001/REC-SVG-20010904/DTD/svg10.dtd">
<svg xmlns="http://www.w3.org/2000/svg" xmlns:xlink="http://www.w3.org/1999/xlink" id="body_1" width="218" height="210">

<defs>
    <linearGradient transform="matrix(-0.5 -0 0 0.5 220.63625 -1.92762)"  id="1" x1="221.9038" y1="418.0688" x2="221.9038" y2="222.9692">
        <stop stop-color="#FFFFFF" offset="0%"/>
        <stop stop-color="#DBDBDB" offset="100%"/>
    </linearGradient>
            <clipPath  id="1">

                <path clip-rule="evenodd" d="M0 0L218 0L218 210L0 210z" />            </clipPath>
            <clipPath  id="2">

                <path clip-rule="evenodd" d="M0 0L218 0L218 210L0 210z" />            </clipPath>
</defs>

<g transform="matrix(0.5 0 0 0.5 0 0)">
	<g>
        <path d="M0 0L218 0L218 210L0 210z" stroke="none" fill="#FFFFFF" fill-rule="nonzero" />
        <path d="M13.835938 109.55859L13.835938 111.20703C 13.835938 128.00781 56.773438 141.6289 109.734375 141.6289C 161.89062 141.6289 204.28906 128.41797 205.57422 111.97266C 205.16016 164.58203 162.40234 207.10547 109.69531 207.10547C 56.73047 207.10547 13.792969 164.16797 13.792969 111.20703C 13.792969 110.65234 13.828125 110.109375 13.835938 109.55859z" stroke="none" fill="url(#1)" />
        <path d="M13.835938 111.20703C 13.835938 94.40625 56.773438 80.78516 109.734375 80.78516C 162.69922 80.78516 205.63281 94.40625 205.63281 111.20703C 205.63281 128.00781 162.69922 141.6289 109.734375 141.6289C 56.773438 141.6289 13.835938 128.00781 13.835938 111.20703z" stroke="none" fill="#E8E8E8" fill-rule="nonzero" />
        <path d="M163.28516 111.20703L205.59375 111.20703C 205.59375 121.97266 187.95703 131.4375 161.35156 136.84375C 162.60938 128.6836 163.28516 120.08594 163.28516 111.20703z" stroke="none" fill="#FFFFFF" fill-rule="nonzero" />
		<g clip-path="url(#1)" >
            <path d="M161.3086 136.84766L109.69531 111.20703L109.734375 111.20703L161.34375 136.84375C 161.33203 136.84766 161.3164 136.85156 161.30469 136.85156L161.30469 136.85156L161.3086 136.84766z" stroke="none" fill="#000000" fill-rule="nonzero" />
		</g>
		<g clip-path="url(#2)" >
            <path d="M161.35156 136.84375L161.35156 136.84766L161.34375 136.84375L161.35156 136.84375z" stroke="none" fill="#FFFFFF" fill-rule="nonzero" />
		</g>
        <path d="M154.89844 59.710938L154.91406 59.70703C 160.21484 74.58203 163.28516 92.25391 163.28516 111.20703C 163.28516 120.08594 162.60938 128.6836 161.35156 136.84375C 161.34766 136.84375 161.34375 136.84375 161.34375 136.84375L161.34375 136.84375L109.734375 111.20703L154.89844 59.710938z" stroke="none" fill="#FFFFFF" fill-rule="nonzero" />
        <path d="M205.32812 111.203125C 205.32812 116.39844 201.04688 121.36719 193.40625 125.71875C 185.76562 130.07031 174.80078 133.78125 161.59375 136.48438L161.59375 136.48438L161.71875 137.09375C 174.97266 134.38281 185.98438 130.66797 193.71875 126.265625C 201.45312 121.86328 205.95312 116.73828 205.95312 111.203125L205.95312 111.203125L205.32812 111.203125z" stroke="none" fill="#000000" fill-rule="nonzero" />
        <path transform="matrix(0.5 0 0 0.5 0 4.90579E-06)"  d="M335.5547 271.0703L339.45312 265.17188L323.3047 273.57812L341.45312 274.96875L335.5547 271.0703z" stroke="#000000" stroke-width="1" fill="#000000" fill-rule="nonzero" />
        <path transform="matrix(0.5 0 0 0.5 0 4.90579E-06)"  d="M270.89062 163.78123C 254.52344 162.33592 237.28125 161.5703 219.46875 161.5703C 113.546875 161.5703 27.671875 188.81248 27.671875 222.41405C 27.671875 256.01562 113.546875 283.2578 219.46875 283.2578C 257.73438 283.2578 293.3828 279.70312 323.3047 273.57812" stroke="#000000" stroke-width="0.5" fill="none" />
        <path transform="matrix(0.5 0 0 0.5 0 4.90579E-06)"  d="M411.26562 222.41405C 411.26562 200.86717 375.96094 181.92967 322.6953 171.12498" stroke="#000000" stroke-width="0.5" fill="none" />
        <path transform="matrix(0.5 0 0 0.5 0 4.90579E-06)"  d="M27.585938 222.41405C 27.585938 328.33594 113.46094 414.21094 219.39062 414.21094C 325.3203 414.21094 411.1875 328.33594 411.1875 222.41405C 411.1875 116.48437 325.3203 30.617178 219.39062 30.617178C 113.46094 30.617178 27.585938 116.48437 27.585938 222.41405z" stroke="#000000" stroke-width="1" fill="none" />
        <path transform="matrix(0.5 0 0 0.5 0 4.90579E-06)"  d="M309.83594 119.40624C 290.8203 66.02343 257.45312 30.617178 219.47656 30.617178" stroke="#000000" stroke-width="0.5" fill="none" />
        <path d="M156.375 62.890625L155.76562 63.0625C 160.28906 78.890625 162.96875 92.27734 162.96875 111.203125C 162.96875 120.06641 162.30469 128.65234 161.04688 136.79688L161.04688 136.79688L161.65625 136.89062C 162.92188 128.71094 163.59375 120.09766 163.59375 111.203125C 163.59375 92.21875 160.90625 78.74219 156.375 62.890625z" stroke="none" fill="#000000" fill-rule="nonzero" />
        <path d="M155.24219 70.16016L155.83203 62.179688L160.55078 68.640625C 158.65234 67.9375 156.51172 68.55859 155.24219 70.16016z" stroke="none" fill="#000000" fill-rule="nonzero" />
        <path transform="matrix(0.5 0 0 0.5 0 4.90579E-06)"  d="M326.5703 222.41405L411.26562 222.41405" stroke="#000000" stroke-width="0.5" fill="none" />
        <path transform="matrix(0.5 0 0 0.5 0 4.90579E-06)"  d="M218.96094 222.41405L325.6953 222.41405" stroke="#000000" stroke-width="0.5" stroke-dasharray="1,2" fill="none" />
        <path transform="matrix(0.5 0 0 0.5 0 4.90579E-06)"  d="M219.46875 222.41405L322.70312 273.6953" stroke="#000000" stroke-width="0.5" fill="none" />
        <path transform="matrix(0.5 0 0 0.5 0 4.90579E-06)"  d="M219.46875 222.41405L309.79688 119.42968" stroke="#000000" stroke-width="0.5" fill="none" />
        <path d="M106.546875 111.20703C 106.546875 112.96875 107.97656 114.39453 109.734375 114.39453C 111.49609 114.39453 112.92578 112.96875 112.92578 111.20703C 112.92578 109.44531 111.49609 108.01953 109.734375 108.01953C 107.97656 108.01953 106.546875 109.44531 106.546875 111.20703z" stroke="none" fill="#000000" fill-rule="nonzero" />
        <path transform="matrix(0.5 0 0 0.5 0 4.90579E-06)"  d="M321.53125 170.74217C 309.64062 168.79686 283.42188 164.84373 270.83594 163.8203" stroke="#000000" stroke-width="0.5" stroke-dasharray="1,2" fill="none" />
        <path d="M151.85547 59.433594C 151.85547 61.195312 153.28125 62.621094 155.04297 62.621094C 156.80469 62.621094 158.23047 61.195312 158.23047 59.433594C 158.23047 57.671875 156.80469 56.246094 155.04297 56.246094C 153.28125 56.246094 151.85547 57.671875 151.85547 59.433594z" stroke="none" fill="#000000" fill-rule="nonzero" />
        <path transform="matrix(0.5 0 0 0.5 0 4.90579E-06)"  d="M219.27344 222.17186L219.27344 30.40624" stroke="#000000" stroke-width="0.5" stroke-dasharray="3,3" fill="none" />
        <path d="M92.046875 4.28125L98.27734 3.355469L98.40234 4.171875L94.30859 11.128906L99.44531 10.367188L99.58203 11.269531L93.10547 12.230469L92.984375 11.414062L97.07422 4.457031L92.17969 5.183594L92.046875 4.28125z" stroke="none" fill="#000000" fill-rule="nonzero" />
        <path d="M106.015625 7.523438L106.05078 8.007812L101.515625 8.328125C 101.609375 9.003906 101.84766 9.507812 102.24219 9.835938C 102.63281 10.167969 103.15625 10.308594 103.80859 10.261719C 104.1875 10.234375 104.55078 10.160156 104.89844 10.042969C 105.24609 9.925781 105.58984 9.761719 105.92578 9.550781L105.92578 9.550781L105.99219 10.480469C 105.65234 10.65625 105.296875 10.796875 104.92969 10.902344C 104.56641 11.007812 104.19141 11.074219 103.80859 11.101562C 102.85156 11.167969 102.07422 10.945312 101.47656 10.425781C 100.875 9.910156 100.54297 9.175781 100.47656 8.226562C 100.40625 7.246094 100.61328 6.445312 101.10547 5.832031C 101.59375 5.214844 102.28906 4.878906 103.1875 4.8125C 103.99609 4.753906 104.65234 4.96875 105.16016 5.457031C 105.66406 5.941406 105.94922 6.632812 106.015625 7.523438zM105.00781 7.304688C 104.96094 6.765625 104.78125 6.347656 104.46484 6.046875C 104.14453 5.746094 103.74609 5.613281 103.25781 5.648438C 102.70703 5.6875 102.28125 5.875 101.97266 6.207031C 101.66406 6.542969 101.50391 6.992188 101.49219 7.5625z" stroke="none" fill="#000000" fill-rule="nonzero" />
        <path d="M112.875 7.105469L112.87109 10.734375L111.88281 10.734375L111.88672 7.136719C 111.88672 6.566406 111.77734 6.140625 111.55469 5.855469C 111.33594 5.574219 111.00391 5.429688 110.55859 5.429688C 110.02344 5.429688 109.60156 5.597656 109.296875 5.9375C 108.98828 6.277344 108.83203 6.742188 108.83203 7.328125L108.83203 7.328125L108.82422 10.730469L107.83203 10.726562L107.83984 4.710938L108.83594 4.714844L108.83203 5.648438C 109.07031 5.285156 109.34766 5.015625 109.671875 4.839844C 109.99219 4.660156 110.359375 4.570312 110.78125 4.570312C 111.46875 4.574219 111.99219 4.789062 112.34766 5.214844C 112.69922 5.644531 112.87891 6.273438 112.875 7.105469z" stroke="none" fill="#000000" fill-rule="nonzero" />
        <path d="M115.17578 4.839844L116.16406 4.890625L115.83594 10.898438L114.85156 10.84375L115.17578 4.839844zM115.30469 2.5L116.28906 2.554688L116.22266 3.804688L115.234375 3.75z" stroke="none" fill="#000000" fill-rule="nonzero" />
        <path d="M119.58594 3.4375L119.42578 5.140625L121.453125 5.328125L121.38281 6.09375L119.35547 5.902344L119.05078 9.15625C 119.00781 9.644531 119.04297 9.964844 119.16406 10.117188C 119.28516 10.265625 119.55078 10.363281 119.96094 10.398438L119.96094 10.398438L120.97266 10.496094L120.89453 11.316406L119.88281 11.222656C 119.125 11.152344 118.61328 10.960938 118.35156 10.652344C 118.08984 10.339844 117.99219 9.8125 118.0625 9.0625L118.0625 9.0625L118.36719 5.8125L117.64453 5.746094L117.71484 4.980469L118.4375 5.046875L118.59375 3.347656L119.58594 3.4375z" stroke="none" fill="#000000" fill-rule="nonzero" />
        <path d="M127.6875 8.628906L127.13672 12.21875L126.16016 12.066406L126.703125 8.511719C 126.78906 7.949219 126.74609 7.511719 126.57031 7.195312C 126.390625 6.882812 126.08594 6.695312 125.64453 6.625C 125.11719 6.546875 124.67578 6.648438 124.32031 6.941406C 123.96484 7.230469 123.74219 7.664062 123.65234 8.246094L123.65234 8.246094L123.140625 11.605469L122.15625 11.453125L123.421875 3.195312L124.40625 3.34375L123.91016 6.582031C 124.19531 6.261719 124.51172 6.035156 124.85547 5.90625C 125.19922 5.78125 125.578125 5.746094 125.99219 5.808594C 126.67578 5.914062 127.16016 6.207031 127.44531 6.683594C 127.73047 7.160156 127.8125 7.808594 127.6875 8.628906z" stroke="none" fill="#000000" fill-rule="nonzero" />
        <path d="M4.167969 89.375L5.300781 89.53516C 4.914062 89.85156 4.605469 90.19922 4.382812 90.58594C 4.15625 90.97266 4.011719 91.39453 3.945312 91.85547C 3.816406 92.76172 3.992188 93.49609 4.480469 94.05859C 4.964844 94.62109 5.734375 94.97656 6.78125 95.125C 7.828125 95.27344 8.664062 95.14844 9.285156 94.74609C 9.910156 94.34375 10.285156 93.6875 10.417969 92.78125C 10.484375 92.32031 10.460938 91.87109 10.351562 91.4375C 10.246094 91.00391 10.046875 90.58594 9.761719 90.17578L9.761719 90.17578L10.886719 90.33594C 11.085938 90.74609 11.222656 91.171875 11.289062 91.609375C 11.355469 92.046875 11.355469 92.5 11.289062 92.96875C 11.117188 94.171875 10.617188 95.06641 9.78125 95.65234C 8.945312 96.23828 7.894531 96.44141 6.621094 96.25781C 5.34375 96.07422 4.386719 95.58594 3.75 94.78906C 3.113281 93.99219 2.882812 92.99609 3.054688 91.79297C 3.121094 91.31641 3.25 90.87891 3.433594 90.47656C 3.621094 90.07422 3.867188 89.70703 4.167969 89.375z" stroke="none" fill="#000000" fill-rule="nonzero" />
        <path d="M9.78125 83.07422L10.253906 83.17969L9.257812 87.61328C 9.929688 87.72266 10.480469 87.63672 10.910156 87.35547C 11.335938 87.07422 11.621094 86.61719 11.765625 85.97656C 11.847656 85.60547 11.882812 85.23828 11.871094 84.87109C 11.859375 84.5 11.800781 84.125 11.695312 83.74219L11.695312 83.74219L12.609375 83.94922C 12.675781 84.32422 12.707031 84.70703 12.703125 85.08594C 12.699219 85.46875 12.65625 85.84375 12.570312 86.21875C 12.359375 87.15625 11.921875 87.83594 11.253906 88.25781C 10.585938 88.68359 9.785156 88.78906 8.859375 88.58203C 7.898438 88.36719 7.191406 87.93359 6.746094 87.28906C 6.296875 86.64453 6.171875 85.88281 6.371094 85C 6.546875 84.21094 6.941406 83.64453 7.554688 83.296875C 8.164062 82.953125 8.90625 82.87891 9.78125 83.07422zM9.28125 83.97656C 8.753906 83.86328 8.296875 83.91797 7.917969 84.13672C 7.539062 84.35156 7.296875 84.69922 7.191406 85.17578C 7.070312 85.71094 7.125 86.17578 7.355469 86.56641C 7.585938 86.96094 7.972656 87.24219 8.515625 87.41406z" stroke="none" fill="#000000" fill-rule="nonzero" />
        <path d="M5.371094 79.96484L5.640625 79.01172L13.683594 81.28125L13.414062 82.23047L5.371094 79.96484z" stroke="none" fill="#000000" fill-rule="nonzero" />
        <path d="M12.828125 73.375L13.285156 73.53125L11.820312 77.83203C 12.476562 78.01172 13.035156 77.984375 13.488281 77.75C 13.945312 77.51953 14.277344 77.09375 14.488281 76.47266C 14.613281 76.11328 14.6875 75.75 14.714844 75.38281C 14.738281 75.015625 14.722656 74.63672 14.660156 74.24219L14.660156 74.24219L15.542969 74.54297C 15.570312 74.92969 15.5625 75.30859 15.515625 75.6875C 15.472656 76.06641 15.386719 76.4375 15.265625 76.796875C 14.953125 77.70703 14.445312 78.33594 13.734375 78.6875C 13.027344 79.03906 12.222656 79.05859 11.320312 78.75391C 10.386719 78.43359 9.734375 77.92969 9.355469 77.24219C 8.980469 76.55078 8.9375 75.78125 9.230469 74.92578C 9.488281 74.16016 9.941406 73.63672 10.585938 73.359375C 11.234375 73.08203 11.980469 73.08594 12.828125 73.375zM12.234375 74.21875C 11.71875 74.05078 11.261719 74.05469 10.863281 74.23047C 10.460938 74.40625 10.183594 74.72266 10.027344 75.18359C 9.847656 75.70703 9.851562 76.17578 10.042969 76.58984C 10.230469 77.00391 10.582031 77.32422 11.101562 77.55469z" stroke="none" fill="#000000" fill-rule="nonzero" />
        <path d="M12.605469 67.12891L13.464844 67.48828C 13.226562 67.69141 13.015625 67.91797 12.832031 68.16797C 12.652344 68.41797 12.5 68.69141 12.375 68.98828C 12.183594 69.44141 12.113281 69.80859 12.15625 70.09375C 12.203125 70.37891 12.363281 70.578125 12.640625 70.69531C 12.851562 70.78125 13.050781 70.76953 13.238281 70.66016C 13.425781 70.546875 13.679688 70.26953 13.992188 69.828125L13.992188 69.828125L14.191406 69.54297C 14.601562 68.953125 14.988281 68.57422 15.355469 68.41016C 15.722656 68.24219 16.132812 68.25391 16.585938 68.44141C 17.101562 68.65625 17.421875 69.03125 17.554688 69.56641C 17.683594 70.09766 17.597656 70.72266 17.300781 71.4375C 17.175781 71.734375 17.019531 72.03125 16.824219 72.328125C 16.632812 72.62891 16.40625 72.92969 16.140625 73.23828L16.140625 73.23828L15.199219 72.84766C 15.515625 72.58203 15.785156 72.30469 16.007812 72.015625C 16.234375 71.72266 16.410156 71.41797 16.546875 71.09766C 16.726562 70.66797 16.789062 70.30859 16.738281 70.015625C 16.6875 69.72266 16.53125 69.51953 16.261719 69.40625C 16.015625 69.30469 15.789062 69.30859 15.589844 69.421875C 15.386719 69.53125 15.105469 69.84375 14.746094 70.359375L14.746094 70.359375L14.539062 70.64453C 14.1875 71.16016 13.832031 71.49219 13.480469 71.640625C 13.128906 71.78906 12.742188 71.77344 12.3125 71.59375C 11.789062 71.375 11.464844 71.02344 11.332031 70.53125C 11.203125 70.04297 11.28125 69.46094 11.566406 68.77734C 11.707031 68.44141 11.863281 68.13672 12.039062 67.859375C 12.210938 67.58203 12.398438 67.33984 12.605469 67.12891z" stroke="none" fill="#000000" fill-rule="nonzero" />
        <path d="M12.261719 63.41797L13.800781 64.16016L14.683594 62.328125L15.378906 62.660156L14.492188 64.49219L17.433594 65.91406C 17.875 66.125 18.1875 66.203125 18.371094 66.140625C 18.554688 66.08203 18.738281 65.86719 18.917969 65.49609L18.917969 65.49609L19.359375 64.58203L20.101562 64.94141L19.660156 65.85547C 19.332031 66.54297 18.972656 66.953125 18.589844 67.08984C 18.207031 67.23047 17.679688 67.13281 17 66.80859L17 66.80859L14.058594 65.38672L13.746094 66.04297L13.054688 65.70703L13.367188 65.05469L11.832031 64.3125L12.261719 63.41797z" stroke="none" fill="#000000" fill-rule="nonzero" />
        <path d="M15.40625 60.964844L15.871094 60.089844L21.183594 62.91797L20.71875 63.789062L15.40625 60.964844zM13.339844 59.86328L13.804688 58.992188L14.910156 59.578125L14.445312 60.453125z" stroke="none" fill="#000000" fill-rule="nonzero" />
        <path d="M20.972656 57.195312C 20.558594 57.882812 20.351562 58.402344 20.351562 58.76172C 20.347656 59.121094 20.539062 59.410156 20.914062 59.63672C 21.214844 59.820312 21.515625 59.86328 21.808594 59.76953C 22.105469 59.679688 22.355469 59.460938 22.558594 59.121094C 22.839844 58.652344 22.902344 58.17578 22.738281 57.691406C 22.574219 57.20703 22.21875 56.80078 21.664062 56.46875L21.664062 56.46875L21.476562 56.35547L20.972656 57.195312zM21.636719 55.296875L24.578125 57.0625L24.070312 57.910156L23.285156 57.441406C 23.484375 57.82422 23.570312 58.203125 23.546875 58.578125C 23.519531 58.95703 23.382812 59.35547 23.132812 59.773438C 22.816406 60.30078 22.414062 60.632812 21.933594 60.765625C 21.449219 60.898438 20.957031 60.816406 20.460938 60.51953C 19.882812 60.171875 19.558594 59.714844 19.5 59.148438C 19.4375 58.58203 19.636719 57.914062 20.101562 57.14453L20.101562 57.14453L20.8125 55.95703L20.730469 55.90625C 20.339844 55.671875 19.960938 55.621094 19.59375 55.746094C 19.226562 55.875 18.90625 56.171875 18.625 56.63672C 18.449219 56.929688 18.3125 57.23828 18.214844 57.558594C 18.117188 57.882812 18.0625 58.214844 18.050781 58.558594L18.050781 58.558594L17.265625 58.085938C 17.332031 57.70703 17.425781 57.351562 17.539062 57.023438C 17.65625 56.695312 17.792969 56.39453 17.960938 56.117188C 18.410156 55.371094 18.9375 54.929688 19.542969 54.79297C 20.152344 54.65625 20.847656 54.82422 21.636719 55.296875z" stroke="none" fill="#000000" fill-rule="nonzero" />
        <path d="M18.78125 50.703125L19.332031 49.882812L26.265625 54.546875L25.714844 55.367188L18.78125 50.703125z" stroke="none" fill="#000000" fill-rule="nonzero" />
        <path d="M23.339844 44.828125L24.375 43.585938L29.878906 45.507812L27 40.433594L28.035156 39.191406L34.195312 44.32422L33.51953 45.13672L28.109375 40.632812L31.011719 45.742188L30.3125 46.578125L24.765625 44.64453L30.175781 49.152344L29.5 49.960938L23.339844 44.828125z" stroke="none" fill="#000000" fill-rule="nonzero" />
        <path d="M36.96875 36.847656L37.3125 37.1875L34.117188 40.41797C 34.628906 40.86328 35.140625 41.08203 35.652344 41.07422C 36.164062 41.0625 36.652344 40.82422 37.11328 40.359375C 37.378906 40.089844 37.60547 39.796875 37.789062 39.476562C 37.972656 39.15625 38.125 38.808594 38.23828 38.429688L38.23828 38.429688L38.902344 39.085938C 38.757812 39.441406 38.585938 39.78125 38.378906 40.101562C 38.171875 40.421875 37.9375 40.71875 37.66797 40.992188C 36.992188 41.671875 36.257812 42.015625 35.46875 42.023438C 34.67578 42.027344 33.941406 41.695312 33.265625 41.027344C 32.566406 40.33203 32.195312 39.59375 32.160156 38.808594C 32.121094 38.023438 32.421875 37.3125 33.054688 36.671875C 33.625 36.09375 34.26172 35.82422 34.960938 35.85547C 35.664062 35.88672 36.33203 36.21875 36.96875 36.847656zM36.066406 37.34375C 35.67578 36.96875 35.265625 36.773438 34.828125 36.757812C 34.390625 36.742188 34 36.90625 33.660156 37.25C 33.26953 37.64453 33.070312 38.066406 33.058594 38.523438C 33.046875 38.976562 33.226562 39.421875 33.59375 39.85547z" stroke="none" fill="#000000" fill-rule="nonzero" />
        <path d="M39.6875 31.933594C 39.5625 31.957031 39.441406 32.003906 39.32422 32.070312C 39.20703 32.132812 39.089844 32.21875 38.972656 32.32422C 38.554688 32.695312 38.35547 33.117188 38.375 33.585938C 38.398438 34.058594 38.632812 34.546875 39.085938 35.054688L39.085938 35.054688L41.203125 37.414062L40.460938 38.07422L36.44922 33.59375L37.1875 32.933594L37.8125 33.628906C 37.722656 33.21875 37.742188 32.835938 37.871094 32.48047C 38.003906 32.128906 38.246094 31.792969 38.597656 31.472656C 38.648438 31.429688 38.710938 31.382812 38.777344 31.332031C 38.84375 31.285156 38.921875 31.234375 39.007812 31.179688L39.007812 31.179688L39.6875 31.933594z" stroke="none" fill="#000000" fill-rule="nonzero" />
        <path d="M40.078125 30.429688L40.839844 29.800781L44.66797 34.441406L43.902344 35.070312L40.078125 30.429688zM38.585938 28.621094L39.347656 27.992188L40.14453 28.957031L39.382812 29.585938z" stroke="none" fill="#000000" fill-rule="nonzero" />
        <path d="M46.42578 26.671875L44.496094 24.050781L45.29297 23.464844L50.246094 30.199219L49.44922 30.78125L48.914062 30.054688C 48.95703 30.46875 48.90625 30.835938 48.753906 31.164062C 48.601562 31.492188 48.34375 31.789062 47.98828 32.05078C 47.402344 32.48047 46.753906 32.597656 46.04297 32.402344C 45.33203 32.20703 44.695312 31.726562 44.132812 30.964844C 43.57422 30.203125 43.304688 29.453125 43.33203 28.714844C 43.35547 27.980469 43.660156 27.394531 44.246094 26.964844C 44.601562 26.699219 44.960938 26.542969 45.316406 26.496094C 45.67578 26.449219 46.046875 26.507812 46.42578 26.671875zM44.95703 30.359375C 45.38672 30.945312 45.847656 31.316406 46.33203 31.472656C 46.816406 31.628906 47.26953 31.550781 47.691406 31.242188C 48.11328 30.933594 48.32422 30.519531 48.320312 30.011719C 48.316406 29.5 48.101562 28.949219 47.66797 28.363281C 47.23828 27.777344 46.78125 27.410156 46.29297 27.253906C 45.804688 27.097656 45.351562 27.175781 44.929688 27.488281C 44.507812 27.796875 44.30078 28.207031 44.304688 28.714844C 44.308594 29.226562 44.527344 29.773438 44.95703 30.359375z" stroke="none" fill="#000000" fill-rule="nonzero" />
        <path d="M48.664062 24.042969L49.492188 23.503906L52.777344 28.542969L51.94922 29.082031L48.664062 24.042969zM47.38672 22.082031L48.214844 21.542969L48.898438 22.589844L48.070312 23.128906z" stroke="none" fill="#000000" fill-rule="nonzero" />
        <path d="M55.378906 23.4375C 54.6875 23.835938 54.25 24.1875 54.07422 24.5C 53.898438 24.8125 53.91797 25.160156 54.13672 25.542969C 54.3125 25.847656 54.55078 26.03125 54.85547 26.09375C 55.15625 26.15625 55.48047 26.089844 55.82422 25.894531C 56.30078 25.621094 56.585938 25.234375 56.679688 24.730469C 56.773438 24.230469 56.660156 23.699219 56.339844 23.140625L56.339844 23.140625L56.23047 22.949219L55.378906 23.4375zM56.88672 22.105469L58.59375 25.082031L57.734375 25.574219L57.28125 24.78125C 57.265625 25.210938 57.15625 25.582031 56.94922 25.902344C 56.746094 26.21875 56.429688 26.5 56.007812 26.742188C 55.472656 27.046875 54.964844 27.140625 54.476562 27.023438C 53.98828 26.902344 53.601562 26.59375 53.3125 26.089844C 52.976562 25.5 52.91797 24.945312 53.140625 24.421875C 53.36328 23.898438 53.86328 23.414062 54.64453 22.96875L54.64453 22.96875L55.847656 22.277344L55.80078 22.195312C 55.57422 21.800781 55.26953 21.570312 54.88672 21.5C 54.503906 21.433594 54.07422 21.535156 53.60547 21.804688C 53.308594 21.976562 53.039062 22.175781 52.796875 22.410156C 52.554688 22.644531 52.34375 22.90625 52.164062 23.199219L52.164062 23.199219L51.710938 22.40625C 51.95703 22.105469 52.20703 21.839844 52.46875 21.609375C 52.73047 21.382812 53 21.1875 53.277344 21.027344C 54.035156 20.59375 54.710938 20.464844 55.308594 20.644531C 55.902344 20.820312 56.429688 21.308594 56.88672 22.105469z" stroke="none" fill="#000000" fill-rule="nonzero" />
        <path d="M63.402344 18.734375L64.93359 22.023438L64.03906 22.441406L62.51953 19.179688C 62.28125 18.664062 62 18.324219 61.679688 18.160156C 61.359375 17.996094 60.996094 18.011719 60.59375 18.199219C 60.109375 18.421875 59.80078 18.753906 59.664062 19.191406C 59.53125 19.632812 59.585938 20.117188 59.83203 20.648438L59.83203 20.648438L61.26953 23.730469L60.367188 24.152344L57.828125 18.699219L58.73047 18.277344L59.125 19.125C 59.1875 18.699219 59.32422 18.335938 59.539062 18.039062C 59.753906 17.738281 60.05078 17.503906 60.429688 17.324219C 61.058594 17.035156 61.621094 17.007812 62.125 17.246094C 62.625 17.484375 63.05078 17.980469 63.402344 18.734375z" stroke="none" fill="#000000" fill-rule="nonzero" />
        <path d="M131.60547 54.125L131.60547 55.183594C 131.19531 54.984375 130.80469 54.839844 130.4414 54.742188C 130.07422 54.64453 129.72266 54.597656 129.38281 54.597656C 128.79297 54.597656 128.33594 54.710938 128.01562 54.941406C 127.69531 55.171875 127.53516 55.496094 127.53516 55.91797C 127.53516 56.273438 127.640625 56.539062 127.85547 56.722656C 128.0664 56.902344 128.47266 57.046875 129.0664 57.160156L129.0664 57.160156L129.72266 57.29297C 130.53125 57.44922 131.1289 57.71875 131.51172 58.10547C 131.89844 58.496094 132.08984 59.015625 132.08984 59.66797C 132.08984 60.445312 131.82812 61.035156 131.3086 61.433594C 130.78906 61.835938 130.02344 62.035156 129.01562 62.035156C 128.63672 62.035156 128.23438 61.992188 127.80469 61.90625C 127.37891 61.820312 126.93359 61.695312 126.47656 61.527344L126.47656 61.527344L126.47656 60.410156C 126.91797 60.65625 127.34766 60.84375 127.76953 60.96875C 128.19531 61.09375 128.60938 61.15625 129.01562 61.15625C 129.63672 61.15625 130.11328 61.035156 130.45312 60.789062C 130.78906 60.546875 130.95703 60.19922 130.95703 59.75C 130.95703 59.35547 130.83594 59.046875 130.59375 58.82422C 130.35156 58.601562 129.95703 58.4375 129.40234 58.32422L129.40234 58.32422L128.74219 58.195312C 127.93359 58.035156 127.34766 57.78125 126.98828 57.4375C 126.625 57.09375 126.44531 56.617188 126.44531 56.003906C 126.44531 55.296875 126.69531 54.73828 127.19531 54.328125C 127.69531 53.921875 128.38281 53.714844 129.25781 53.714844C 129.63672 53.714844 130.01953 53.75 130.41016 53.820312C 130.80078 53.88672 131.19922 53.98828 131.60547 54.125z" stroke="none" fill="#000000" fill-rule="nonzero" />
        <path d="M134.71484 54.15625L134.71484 55.86328L136.75 55.86328L136.75 56.632812L134.71484 56.632812L134.71484 59.898438C 134.71484 60.390625 134.78516 60.703125 134.91797 60.84375C 135.05078 60.984375 135.32422 61.054688 135.73828 61.054688L135.73828 61.054688L136.75 61.054688L136.75 61.878906L135.73828 61.878906C 134.97266 61.878906 134.44922 61.73828 134.15625 61.453125C 133.86719 61.16797 133.72266 60.652344 133.72266 59.898438L133.72266 59.898438L133.72266 56.632812L132.9961 56.632812L132.9961 55.86328L133.72266 55.86328L133.72266 54.15625L134.71484 54.15625z" stroke="none" fill="#000000" fill-rule="nonzero" />
        <path d="M140.78906 58.85547C 139.99219 58.85547 139.4375 58.94922 139.13281 59.128906C 138.82422 59.3125 138.66797 59.625 138.66797 60.066406C 138.66797 60.414062 138.78516 60.695312 139.01562 60.898438C 139.2461 61.10547 139.5625 61.210938 139.95703 61.210938C 140.50781 61.210938 140.94531 61.015625 141.27734 60.625C 141.60938 60.23828 141.77344 59.722656 141.77344 59.078125L141.77344 59.078125L141.77344 58.85547L140.78906 58.85547zM142.76172 58.44922L142.76172 61.878906L141.77344 61.878906L141.77344 60.96875C 141.54688 61.33203 141.26562 61.601562 140.92969 61.777344C 140.59375 61.94922 140.1836 62.035156 139.69531 62.035156C 139.07812 62.035156 138.58984 61.86328 138.22656 61.51953C 137.86328 61.171875 137.67969 60.710938 137.67969 60.128906C 137.67969 59.453125 137.90625 58.941406 138.35938 58.597656C 138.8125 58.253906 139.48828 58.08203 140.38672 58.08203L140.38672 58.08203L141.77344 58.08203L141.77344 57.98828C 141.77344 57.53125 141.625 57.179688 141.32422 56.929688C 141.02734 56.683594 140.60547 56.558594 140.0664 56.558594C 139.72266 56.558594 139.38672 56.597656 139.0625 56.679688C 138.73438 56.76172 138.42188 56.88672 138.1211 57.05078L138.1211 57.05078L138.1211 56.140625C 138.48438 56 138.83594 55.89453 139.17578 55.82422C 139.51562 55.753906 139.84375 55.71875 140.16797 55.71875C 141.03906 55.71875 141.6875 55.945312 142.11719 56.398438C 142.54688 56.847656 142.76172 57.53125 142.76172 58.44922z" stroke="none" fill="#000000" fill-rule="nonzero" />
        <path d="M148.28906 56.789062C 148.17969 56.722656 148.0586 56.67578 147.92578 56.64453C 147.79688 56.617188 147.65234 56.601562 147.49219 56.601562C 146.9336 56.601562 146.50781 56.78125 146.20703 57.14453C 145.91016 57.507812 145.75781 58.03125 145.75781 58.710938L145.75781 58.710938L145.75781 61.878906L144.76562 61.878906L144.76562 55.86328L145.75781 55.86328L145.75781 56.80078C 145.96875 56.433594 146.23828 56.164062 146.57031 55.984375C 146.90234 55.808594 147.3086 55.71875 147.78516 55.71875C 147.85156 55.71875 147.92578 55.722656 148.00781 55.734375C 148.09375 55.742188 148.1836 55.753906 148.28516 55.773438L148.28516 55.773438L148.28906 56.789062z" stroke="none" fill="#000000" fill-rule="nonzero" />
        <path d="M55.76172 106.92578C 54.972656 106.92578 54.347656 107.21875 53.88672 107.80469C 53.421875 108.390625 53.191406 109.19141 53.191406 110.20703C 53.191406 111.21484 53.421875 112.015625 53.88672 112.60156C 54.347656 113.1875 54.972656 113.484375 55.76172 113.484375C 56.55078 113.484375 57.17578 113.1875 57.632812 112.60156C 58.09375 112.015625 58.32422 111.21484 58.32422 110.20703C 58.32422 109.19141 58.09375 108.390625 57.632812 107.80469C 57.17578 107.21875 56.55078 106.92578 55.76172 106.92578zM55.76172 106.04297C 56.88672 106.04297 57.785156 106.421875 58.45703 107.17578C 59.132812 107.92969 59.46875 108.9375 59.46875 110.20703C 59.46875 111.46875 59.132812 112.48047 58.45703 113.234375C 57.785156 113.98828 56.88672 114.36328 55.76172 114.36328C 54.632812 114.36328 53.734375 113.98828 53.058594 113.234375C 52.382812 112.484375 52.046875 111.47266 52.046875 110.20703C 52.046875 108.9375 52.382812 107.92969 53.058594 107.17578C 53.734375 106.421875 54.632812 106.04297 55.76172 106.04297z" stroke="none" fill="#000000" fill-rule="nonzero" />
        <path d="M65.44141 111.20703C 65.44141 110.47656 65.29297 109.90625 64.99219 109.49609C 64.69531 109.08203 64.28125 108.875 63.76172 108.875C 63.23828 108.875 62.82422 109.08203 62.527344 109.49609C 62.226562 109.90625 62.078125 110.47656 62.078125 111.20703C 62.078125 111.93359 62.226562 112.50391 62.527344 112.91406C 62.82422 113.328125 63.23828 113.53516 63.76172 113.53516C 64.28125 113.53516 64.69531 113.328125 64.99219 112.91406C 65.29297 112.50391 65.44141 111.93359 65.44141 111.20703zM62.078125 109.10547C 62.285156 108.74609 62.546875 108.48047 62.867188 108.30859C 63.183594 108.13281 63.5625 108.046875 64 108.046875C 64.73047 108.046875 65.32422 108.33594 65.78125 108.91797C 66.23828 109.49609 66.46875 110.26172 66.46875 111.20703C 66.46875 112.15234 66.23828 112.91406 65.78125 113.49219C 65.32422 114.07422 64.73047 114.36328 64 114.36328C 63.5625 114.36328 63.183594 114.27734 62.867188 114.10156C 62.546875 113.92969 62.285156 113.66406 62.078125 113.30469L62.078125 113.30469L62.078125 114.20703L61.085938 114.20703L61.085938 105.85156L62.078125 105.85156z" stroke="none" fill="#000000" fill-rule="nonzero" />
        <path d="M71.94141 108.37109L71.94141 109.30469C 71.66016 109.16016 71.37109 109.05469 71.07031 108.98047C 70.76953 108.91016 70.45703 108.875 70.13672 108.875C 69.64453 108.875 69.27734 108.94922 69.03125 109.10156C 68.78516 109.25 68.66406 109.47656 68.66406 109.77734C 68.66406 110.00391 68.75 110.1875 68.92578 110.31641C 69.10156 110.44531 69.453125 110.57031 69.984375 110.69141L69.984375 110.69141L70.32422 110.765625C 71.02344 110.91406 71.52344 111.12891 71.82031 111.40234C 72.11328 111.67578 72.26172 112.05859 72.26172 112.546875C 72.26172 113.10547 72.04297 113.546875 71.59766 113.875C 71.15625 114.19922 70.55078 114.36328 69.77734 114.36328C 69.453125 114.36328 69.11719 114.33203 68.76953 114.26953C 68.41797 114.20703 68.05078 114.11328 67.66406 113.98828L67.66406 113.98828L67.66406 112.96875C 68.03125 113.15625 68.390625 113.30078 68.74609 113.39453C 69.09766 113.48828 69.44922 113.53516 69.796875 113.53516C 70.26172 113.53516 70.62109 113.45703 70.87109 113.296875C 71.12109 113.13672 71.24609 112.91406 71.24609 112.625C 71.24609 112.35547 71.15625 112.14844 70.97656 112.00391C 70.796875 111.86328 70.39844 111.72266 69.78516 111.59375L69.78516 111.59375L69.44141 111.51172C 68.83203 111.38281 68.38672 111.18359 68.11719 110.91797C 67.84375 110.65234 67.70703 110.28516 67.70703 109.82031C 67.70703 109.25391 67.90625 108.81641 68.30859 108.50781C 68.71094 108.19922 69.28125 108.046875 70.015625 108.046875C 70.38281 108.046875 70.72656 108.07422 71.046875 108.12891C 71.37109 108.17969 71.66797 108.26172 71.94141 108.37109z" stroke="none" fill="#000000" fill-rule="nonzero" />
        <path d="M78.98828 110.953125L78.98828 111.4375L74.44141 111.4375C 74.484375 112.11719 74.69141 112.63672 75.05859 112.99219C 75.42578 113.34766 75.9375 113.52734 76.58984 113.52734C 76.97266 113.52734 77.33984 113.48047 77.69531 113.38672C 78.05078 113.29297 78.40625 113.15234 78.75781 112.96875L78.75781 112.96875L78.75781 113.90234C 78.40234 114.05078 78.03906 114.16797 77.66406 114.24609C 77.29297 114.32422 76.91406 114.36328 76.53125 114.36328C 75.57422 114.36328 74.8125 114.08594 74.25391 113.52734C 73.69141 112.96875 73.41016 112.21094 73.41016 111.25781C 73.41016 110.27344 73.67578 109.49219 74.21094 108.91406C 74.74219 108.33594 75.45703 108.046875 76.359375 108.046875C 77.16797 108.046875 77.80859 108.30859 78.28125 108.828125C 78.75 109.34766 78.98828 110.05859 78.98828 110.953125zM78 110.66406C 77.99219 110.12109 77.83984 109.69141 77.54297 109.36719C 77.25 109.046875 76.859375 108.88672 76.37109 108.88672C 75.82031 108.88672 75.37891 109.03906 75.046875 109.35156C 74.71484 109.66406 74.52344 110.10156 74.47656 110.66797z" stroke="none" fill="#000000" fill-rule="nonzero" />
        <path d="M84.09375 109.11719C 83.984375 109.05078 83.86328 109.00391 83.73047 108.97266C 83.60156 108.94141 83.45703 108.92969 83.30078 108.92969C 82.74219 108.92969 82.3125 109.109375 82.01172 109.47266C 81.71484 109.83594 81.56641 110.359375 81.56641 111.03906L81.56641 111.03906L81.56641 114.20703L80.57031 114.20703L80.57031 108.19141L81.56641 108.19141L81.56641 109.125C 81.77344 108.76172 82.04297 108.48828 82.375 108.3125C 82.71094 108.13672 83.11328 108.046875 83.58984 108.046875C 83.65625 108.046875 83.734375 108.05078 83.81641 108.05859C 83.89844 108.07031 83.98828 108.08203 84.08984 108.10156L84.08984 108.10156L84.09375 109.11719z" stroke="none" fill="#000000" fill-rule="nonzero" />
        <path d="M84.43359 108.19141L85.48047 108.19141L87.359375 113.24219L89.24219 108.19141L90.28906 108.19141L88.03125 114.20703L86.6875 114.20703L84.43359 108.19141z" stroke="none" fill="#000000" fill-rule="nonzero" />
        <path d="M96.796875 110.953125L96.796875 111.4375L92.25391 111.4375C 92.296875 112.11719 92.5 112.63672 92.86719 112.99219C 93.234375 113.34766 93.74609 113.52734 94.40234 113.52734C 94.78125 113.52734 95.14844 113.48047 95.50391 113.38672C 95.86328 113.29297 96.21484 113.15234 96.56641 112.96875L96.56641 112.96875L96.56641 113.90234C 96.21094 114.05078 95.84766 114.16797 95.47656 114.24609C 95.10547 114.32422 94.72656 114.36328 94.34375 114.36328C 93.38281 114.36328 92.625 114.08594 92.0625 113.52734C 91.50391 112.96875 91.22266 112.21094 91.22266 111.25781C 91.22266 110.27344 91.48828 109.49219 92.01953 108.91406C 92.55078 108.33594 93.26953 108.046875 94.171875 108.046875C 94.98047 108.046875 95.62109 108.30859 96.08984 108.828125C 96.5625 109.34766 96.796875 110.05859 96.796875 110.953125zM95.80859 110.66406C 95.80078 110.12109 95.65234 109.69141 95.35547 109.36719C 95.05859 109.046875 94.66797 108.88672 94.18359 108.88672C 93.62891 108.88672 93.1875 109.03906 92.859375 109.35156C 92.52734 109.66406 92.33594 110.10156 92.28516 110.66797z" stroke="none" fill="#000000" fill-rule="nonzero" />
        <path d="M101.90625 109.11719C 101.79297 109.05078 101.671875 109.00391 101.54297 108.97266C 101.41016 108.94141 101.26953 108.92969 101.109375 108.92969C 100.55078 108.92969 100.12109 109.109375 99.82422 109.47266C 99.52344 109.83594 99.375 110.359375 99.375 111.03906L99.375 111.03906L99.375 114.20703L98.38281 114.20703L98.38281 108.19141L99.375 108.19141L99.375 109.125C 99.58203 108.76172 99.85547 108.48828 100.1875 108.3125C 100.51953 108.13672 100.92578 108.046875 101.40234 108.046875C 101.46875 108.046875 101.54297 108.05078 101.625 108.05859C 101.70703 108.07031 101.80078 108.08203 101.89844 108.10156L101.89844 108.10156L101.90625 109.11719z" stroke="none" fill="#000000" fill-rule="nonzero" />
        <path d="M37.42578 119.28125L38.460938 119.61328L37.460938 122.74219L41.214844 123.94531L42.214844 120.8125L43.25 121.14453L40.808594 128.78125L39.773438 128.45312L40.9375 124.8125L37.183594 123.61328L36.01953 127.25L34.98828 126.921875L37.42578 119.28125z" stroke="none" fill="#000000" fill-rule="nonzero" />
        <path d="M46.48047 124.828125C 45.96875 124.69141 45.507812 124.78125 45.10547 125.10156C 44.69922 125.41797 44.402344 125.92578 44.214844 126.62109C 44.027344 127.31641 44.03125 127.90234 44.21875 128.38281C 44.40625 128.85938 44.757812 129.17188 45.273438 129.3086C 45.78125 129.44531 46.23828 129.35156 46.64453 129.03125C 47.046875 128.71094 47.34375 128.20312 47.53125 127.51172C 47.714844 126.82422 47.714844 126.23828 47.523438 125.75781C 47.335938 125.27344 46.98828 124.96484 46.48047 124.828125zM46.695312 124.01953C 47.527344 124.24219 48.10547 124.6875 48.433594 125.35547C 48.76172 126.01953 48.796875 126.83203 48.54297 127.78516C 48.285156 128.73438 47.847656 129.41797 47.23047 129.83203C 46.609375 130.2461 45.88672 130.33984 45.054688 130.11719C 44.222656 129.89453 43.640625 129.44922 43.316406 128.77734C 42.98828 128.10938 42.953125 127.30078 43.210938 126.35156C 43.46875 125.39453 43.902344 124.71484 44.51953 124.30078C 45.13672 123.88672 45.86328 123.79297 46.695312 124.01953z" stroke="none" fill="#000000" fill-rule="nonzero" />
        <path d="M53.902344 126.88672C 53.808594 126.796875 53.69922 126.72656 53.58203 126.66406C 53.460938 126.60547 53.32422 126.55859 53.16797 126.52344C 52.625 126.39844 52.16797 126.47656 51.79297 126.76172C 51.41797 127.05078 51.15625 127.52344 51 128.1875L51 128.1875L50.285156 131.27344L49.316406 131.04688L50.679688 125.1875L51.64453 125.41406L51.433594 126.32422C 51.71875 126.015625 52.04297 125.8125 52.410156 125.71484C 52.773438 125.61719 53.1875 125.625 53.652344 125.73047C 53.71875 125.74609 53.789062 125.76953 53.867188 125.796875C 53.945312 125.82422 54.03125 125.85547 54.125 125.89844L54.125 125.89844L53.902344 126.88672z" stroke="none" fill="#000000" fill-rule="nonzero" />
        <path d="M55 126.16406L55.96875 126.36328L54.742188 132.2539L53.773438 132.05078L55 126.16406zM55.476562 123.87109L56.445312 124.07031L56.191406 125.296875L55.222656 125.09375z" stroke="none" fill="#000000" fill-rule="nonzero" />
        <path d="M57.402344 126.66797L62.023438 127.49609L61.867188 128.38281L57.445312 131.98438L61.101562 132.64062L60.960938 133.41797L56.210938 132.5664L56.371094 131.67578L60.789062 128.07812L57.265625 127.44531L57.402344 126.66797z" stroke="none" fill="#000000" fill-rule="nonzero" />
        <path d="M65.48828 128.69531C 64.96094 128.625 64.51953 128.77344 64.16016 129.14062C 63.796875 129.50781 63.566406 130.05078 63.472656 130.76172C 63.375 131.47656 63.44922 132.0586 63.695312 132.50781C 63.945312 132.96094 64.33203 133.22266 64.859375 133.29297C 65.38281 133.36328 65.82422 133.21484 66.18359 132.84375C 66.546875 132.47656 66.77344 131.9375 66.87109 131.22656C 66.96875 130.51953 66.890625 129.9414 66.64453 129.48438C 66.39453 129.03125 66.00781 128.76562 65.48828 128.69531zM65.60156 127.86719C 66.453125 127.98047 67.08203 128.35156 67.49219 128.96875C 67.90625 129.58984 68.04297 130.39062 67.91016 131.36719C 67.77734 132.34375 67.42969 133.07422 66.86719 133.5664C 66.30469 134.05469 65.59766 134.23828 64.74609 134.125C 63.890625 134.00781 63.26172 133.63672 62.851562 133.01562C 62.441406 132.39453 62.304688 131.59766 62.4375 130.6211C 62.570312 129.64062 62.91797 128.91016 63.48047 128.42188C 64.03906 127.93359 64.74609 127.75 65.60156 127.86719z" stroke="none" fill="#000000" fill-rule="nonzero" />
        <path d="M74.41016 131.3164L74.109375 134.9336L73.125 134.85156L73.421875 131.26562C 73.46875 130.69922 73.39453 130.26562 73.19531 129.96484C 72.99609 129.66406 72.67578 129.4961 72.234375 129.45703C 71.703125 129.41406 71.26953 129.55078 70.93359 129.86328C 70.60156 130.17578 70.41016 130.625 70.359375 131.21094L70.359375 131.21094L70.08203 134.60156L69.08984 134.51953L69.58594 128.52344L70.57422 128.60547L70.5 129.53516C 70.765625 129.19531 71.0625 128.94922 71.39844 128.79688C 71.73047 128.64453 72.109375 128.58594 72.52344 128.6211C 73.21484 128.67578 73.71875 128.9336 74.03516 129.39062C 74.35156 129.84375 74.47656 130.48828 74.41016 131.3164z" stroke="none" fill="#000000" fill-rule="nonzero" />
        <path d="M209.5 106.81641L210.96094 106.81641L214.51953 113.52734L214.51953 106.81641L215.57031 106.81641L215.57031 114.83594L214.10938 114.83594L210.55469 108.12891L210.55469 114.83594L209.5 114.83594L209.5 106.81641z" stroke="none" fill="#000000" fill-rule="nonzero" />
        <path d="M162.9414 140.91797L161.82031 145.02344L164.75781 144.76562L162.9414 140.91797zM162.23828 139.90625L163.46484 139.80078L167.20312 147.52344L166.08203 147.6211L165.17578 145.63672L161.57422 145.94922L161.02344 148.0625L159.88281 148.16016z" stroke="none" fill="#000000" fill-rule="nonzero" />
        <path d="M166.53906 141.40625L171.11719 140.36719L171.3164 141.2461L168.65234 146.28906L172.27734 145.46484L172.45312 146.23438L167.74219 147.30469L167.54297 146.42578L170.20703 141.38281L166.71484 142.17969L166.53906 141.40625z" stroke="none" fill="#000000" fill-rule="nonzero" />
        <path d="M172.1836 140.01172L173.1289 139.73047L174.84766 145.4961L173.89844 145.77734L172.1836 140.01172zM171.51562 137.76953L172.46094 137.48828L172.82031 138.6875L171.8711 138.96875z" stroke="none" fill="#000000" fill-rule="nonzero" />
        <path d="M179.46875 138.73828C 179.53906 138.23438 179.69922 137.82031 179.9414 137.5C 180.1875 137.17969 180.52734 136.9375 180.96094 136.76953C 181.54688 136.54297 182.07812 136.57422 182.55078 136.86328C 183.02734 137.14844 183.41016 137.67188 183.69922 138.42578L183.69922 138.42578L185.0039 141.8164L184.07812 142.17188L182.78516 138.8125C 182.57812 138.27344 182.32812 137.91406 182.03906 137.72656C 181.7461 137.53906 181.40625 137.51953 181.01562 137.66797C 180.53516 137.85547 180.21875 138.15625 180.0664 138.58203C 179.91016 139.00781 179.9375 139.49219 180.14844 140.03906L180.14844 140.03906L181.3711 143.21484L180.4414 143.57031L179.14844 140.21094C 178.9414 139.67188 178.6914 139.3086 178.40234 139.1211C 178.11328 138.9336 177.76953 138.91797 177.3711 139.07031C 176.89844 139.2539 176.58594 139.5586 176.4336 139.98438C 176.27734 140.41016 176.30469 140.89453 176.51562 141.4375L176.51562 141.4375L177.73438 144.61328L176.8086 144.96875L174.64844 139.35547L175.57422 138.9961L175.91016 139.8711C 175.98828 139.44531 176.14453 139.09375 176.375 138.8164C 176.60547 138.53906 176.92188 138.32422 177.32812 138.16797C 177.73438 138.01172 178.1211 137.98047 178.48828 138.07812C 178.85156 138.17578 179.17969 138.39453 179.46875 138.73828z" stroke="none" fill="#000000" fill-rule="nonzero" />
        <path d="M185.66016 138.84375L184.07812 135.5625L184.96875 135.13281L186.53516 138.3789C 186.78125 138.89453 187.0664 139.23047 187.39062 139.39062C 187.71484 139.55078 188.07422 139.53125 188.47656 139.33984C 188.95703 139.10938 189.26172 138.77344 189.39453 138.33203C 189.52344 137.89062 189.46094 137.40625 189.20703 136.875L189.20703 136.875L187.72656 133.80469L188.61719 133.375L191.23047 138.79297L190.33984 139.22266L189.9375 138.39062C 189.8789 138.82422 189.7461 139.1914 189.53906 139.48828C 189.32812 139.78516 189.03516 140.02344 188.66016 140.20703C 188.03516 140.5039 187.47266 140.53906 186.96094 140.3086C 186.45312 140.07812 186.01953 139.58594 185.66016 138.84375z" stroke="none" fill="#000000" fill-rule="nonzero" />
        <path d="M190.23047 130.57422L191.03906 132.07422L192.83203 131.10938L193.19531 131.78516L191.40625 132.7539L192.95703 135.625C 193.1875 136.0586 193.39844 136.30469 193.58203 136.36328C 193.76562 136.42188 194.03906 136.35156 194.40234 136.15625L194.40234 136.15625L195.29688 135.67578L195.6875 136.40234L194.79688 136.88672C 194.125 137.2461 193.59375 137.3711 193.20312 137.25781C 192.8125 137.14844 192.4375 136.75781 192.08203 136.09766L192.08203 136.09766L190.53125 133.22266L189.89453 133.5664L189.52734 132.89062L190.16797 132.54688L189.35547 131.04297L190.23047 130.57422z" stroke="none" fill="#000000" fill-rule="nonzero" />
        <path d="M199.2539 130.08594L201.1211 133.19922L200.27344 133.70703L198.42188 130.6211C 198.1289 130.13281 197.8164 129.82422 197.48047 129.69531C 197.14453 129.5664 196.78516 129.61719 196.40625 129.84375C 195.94922 130.11719 195.67578 130.48047 195.58594 130.92969C 195.4961 131.38281 195.60156 131.85938 195.90234 132.36328L195.90234 132.36328L197.65234 135.27734L196.79688 135.78906L192.5039 128.6211L193.35547 128.10938L195.03906 130.91797C 195.05469 130.48828 195.15625 130.11328 195.33984 129.79297C 195.52344 129.47656 195.79297 129.21094 196.15234 128.9961C 196.7461 128.64062 197.30469 128.55469 197.82812 128.73828C 198.35156 128.92188 198.82812 129.3711 199.2539 130.08594z" stroke="none" fill="#000000" fill-rule="nonzero" />
        <path d="M157.3086 81.625L153.08984 81.078125L153.7461 83.953125L157.3086 81.625zM158.21484 80.78906L158.48828 81.98828L151.35156 86.75391L151.10156 85.65625L152.9414 84.484375L152.13672 80.96094L149.96875 80.70703L149.71484 79.59375z" stroke="none" fill="#000000" fill-rule="nonzero" />
        <path d="M159.73047 86.37109L159.90625 87.34375L151.6836 88.84375L151.50781 87.87109L159.73047 86.37109z" stroke="none" fill="#000000" fill-rule="nonzero" />
        <path d="M159.8164 90.68359L158.125 90.94141L158.42969 92.953125L157.67188 93.06641L157.36719 91.05469L154.13672 91.54297C 153.65234 91.61719 153.35156 91.73047 153.23438 91.88672C 153.11719 92.03906 153.08594 92.32031 153.14844 92.72656L153.14844 92.72656L153.30078 93.73047L152.48438 93.85547L152.33203 92.85156C 152.21875 92.09766 152.28125 91.55469 152.51562 91.22656C 152.7539 90.89453 153.2461 90.67578 153.98828 90.5625L153.98828 90.5625L157.21875 90.07422L157.10938 89.35547L157.8711 89.24219L157.97656 89.95703L159.66797 89.703125L159.8164 90.68359z" stroke="none" fill="#000000" fill-rule="nonzero" />
        <path d="M158.61328 94.42578L158.73047 95.40625L152.75781 96.13281L152.64062 95.14844L158.61328 94.42578zM160.9375 94.140625L161.05469 95.12109L159.8125 95.27344L159.69531 94.29297z" stroke="none" fill="#000000" fill-rule="nonzero" />
        <path d="M160.76953 98.44531L159.0664 98.60156L159.2539 100.62891L158.49219 100.69922L158.30469 98.671875L155.05078 98.97266C 154.5625 99.015625 154.2539 99.11328 154.1289 99.26172C 154 99.40625 153.95703 99.68359 153.9961 100.09375L153.9961 100.09375L154.08984 101.10547L153.26562 101.18359L153.17188 100.171875C 153.10156 99.41016 153.19531 98.875 153.45312 98.55859C 153.70703 98.24609 154.21094 98.05078 154.96094 97.984375L154.96094 97.984375L158.21094 97.68359L158.14453 96.96094L158.91016 96.890625L158.97656 97.61328L160.67578 97.453125L160.76953 98.44531z" stroke="none" fill="#000000" fill-rule="nonzero" />
        <path d="M155.73438 102.26953L159.3711 102.09375L159.42188 103.08203L155.82031 103.25391C 155.25 103.28125 154.83203 103.41016 154.5586 103.64844C 154.28516 103.88281 154.15625 104.22266 154.17969 104.66406C 154.20312 105.19922 154.39453 105.61328 154.75 105.90625C 155.10156 106.19922 155.57422 106.328125 156.16016 106.30078L156.16016 106.30078L159.5664 106.13672L159.61328 107.125L153.60547 107.41406L153.5586 106.42578L154.48047 106.38281C 154.10547 106.16016 153.82031 105.89453 153.6289 105.58594C 153.4375 105.27734 153.32812 104.91406 153.3086 104.49609C 153.27734 103.80859 153.46484 103.27344 153.8789 102.89453C 154.28906 102.515625 154.91016 102.30859 155.73438 102.26953z" stroke="none" fill="#000000" fill-rule="nonzero" />
        <path d="M158.71875 113.46094L161.97266 113.48828L161.96484 114.47656L153.60938 114.40625L153.61719 113.41797L154.51953 113.42578C 154.16016 113.21484 153.89844 112.953125 153.72656 112.63281C 153.55469 112.31641 153.47266 111.93359 153.47656 111.48828C 153.48047 110.76172 153.77734 110.171875 154.35938 109.72266C 154.94531 109.26953 155.71094 109.046875 156.65625 109.05469C 157.60156 109.0625 158.35938 109.296875 158.9375 109.75781C 159.51172 110.21875 159.79688 110.8125 159.79297 111.54297C 159.78906 111.984375 159.69922 112.36328 159.52344 112.67969C 159.34766 112.99609 159.07812 113.25781 158.71875 113.46094zM156.64453 110.07422C 155.91797 110.07031 155.34766 110.21484 154.9336 110.51172C 154.51562 110.80469 154.30469 111.21484 154.30078 111.73828C 154.29688 112.26172 154.5 112.67578 154.91016 112.97656C 155.32422 113.28125 155.89062 113.4375 156.61719 113.44531C 157.34375 113.44922 157.91797 113.30469 158.33203 113.00781C 158.75 112.70703 158.95703 112.296875 158.96484 111.77734C 158.96875 111.25391 158.76562 110.83984 158.35156 110.53906C 157.9414 110.234375 157.3711 110.08203 156.64453 110.07422z" stroke="none" fill="#000000" fill-rule="nonzero" />
        <path d="M156.42578 121.80078L155.94531 121.765625L156.2539 117.234375C 155.57422 117.23047 155.04297 117.39844 154.66406 117.73828C 154.28125 118.08203 154.07031 118.578125 154.02344 119.234375C 154 119.61328 154.01953 119.98047 154.08984 120.34375C 154.15625 120.70703 154.27344 121.06641 154.4336 121.42969L154.4336 121.42969L153.5 121.36719C 153.375 121.00391 153.28516 120.63281 153.23438 120.25391C 153.17969 119.87891 153.16797 119.5 153.1914 119.11719C 153.25781 118.16016 153.58984 117.421875 154.1836 116.89844C 154.78125 116.37891 155.55469 116.15234 156.5039 116.21484C 157.48438 116.28516 158.2461 116.60156 158.78906 117.171875C 159.32812 117.74219 159.5664 118.47656 159.5039 119.37891C 159.44922 120.18359 159.14844 120.80469 158.59375 121.23828C 158.04297 121.671875 157.32031 121.859375 156.42578 121.80078zM156.78516 120.83203C 157.32422 120.86328 157.76562 120.74219 158.10547 120.46875C 158.44922 120.19531 158.63672 119.81641 158.66797 119.33203C 158.70703 118.78125 158.58203 118.328125 158.29297 117.97656C 158.0039 117.625 157.58203 117.40625 157.01953 117.31641z" stroke="none" fill="#000000" fill-rule="nonzero" />
	</g>
</g>
</svg>