<?xml version="1.0" encoding="UTF-8"?>
<svg xmlns="http://www.w3.org/2000/svg" xmlns:xlink="http://www.w3.org/1999/xlink" width="436px" height="420px" viewBox="0 0 218 210" version="1.1">
<defs>
<linearGradient id="linear0" gradientUnits="userSpaceOnUse" x1="221.90379" y1="418.06879" x2="221.90379" y2="222.96919" gradientTransform="matrix(-0.5,0,0,0.5,220.63625,-1.92762)">
<stop offset="0" style="stop-color:rgb(100%,100%,100%);stop-opacity:1;"/>
<stop offset="1" style="stop-color:rgb(85.882353%,85.882353%,85.882353%);stop-opacity:1;"/>
</linearGradient>
<filter id="alpha" filterUnits="objectBoundingBox" x="0%" y="0%" width="100%" height="100%">
  <feColorMatrix type="matrix" in="SourceGraphic" values="0 0 0 0 1 0 0 0 0 1 0 0 0 0 1 0 0 0 1 0"/>
</filter>
<mask id="mask0">
  <g filter="url(#alpha)">
<rect x="0" y="0" width="218" height="210" style="fill:rgb(0%,0%,0%);fill-opacity:0.101961;stroke:none;"/>
  </g>
</mask>
<clipPath id="clip1">
  <rect x="0" y="0" width="218" height="210"/>
</clipPath>
<g id="surface7" clip-path="url(#clip1)">
<path style=" stroke:none;fill-rule:nonzero;fill:rgb(0%,0%,0%);fill-opacity:1;" d="M 161.308594 136.847656 L 109.695312 111.207031 L 109.734375 111.207031 L 161.34375 136.84375 C 161.332031 136.847656 161.316406 136.851562 161.304688 136.851562 Z M 161.308594 136.847656 "/>
</g>
<mask id="mask1">
  <g filter="url(#alpha)">
<rect x="0" y="0" width="218" height="210" style="fill:rgb(0%,0%,0%);fill-opacity:0.2;stroke:none;"/>
  </g>
</mask>
<clipPath id="clip2">
  <rect x="0" y="0" width="218" height="210"/>
</clipPath>
<g id="surface10" clip-path="url(#clip2)">
<path style=" stroke:none;fill-rule:nonzero;fill:rgb(100%,100%,100%);fill-opacity:1;" d="M 161.351562 136.84375 L 161.351562 136.847656 L 161.34375 136.84375 Z M 161.351562 136.84375 "/>
</g>
</defs>
<g id="surface1">
<rect x="0" y="0" width="218" height="210" style="fill:rgb(100%,100%,100%);fill-opacity:1;stroke:none;"/>
<path style=" stroke:none;fill-rule:nonzero;fill:url(#linear0);" d="M 13.835938 109.558594 L 13.835938 111.207031 C 13.835938 128.007812 56.773438 141.628906 109.734375 141.628906 C 161.890625 141.628906 204.289062 128.417969 205.574219 111.972656 C 205.160156 164.582031 162.402344 207.105469 109.695312 207.105469 C 56.730469 207.105469 13.792969 164.167969 13.792969 111.207031 C 13.792969 110.652344 13.828125 110.109375 13.835938 109.558594 Z M 13.835938 109.558594 "/>
<path style=" stroke:none;fill-rule:nonzero;fill:rgb(90.980392%,90.980392%,90.980392%);fill-opacity:1;" d="M 13.835938 111.207031 C 13.835938 94.40625 56.773438 80.785156 109.734375 80.785156 C 162.699219 80.785156 205.632812 94.40625 205.632812 111.207031 C 205.632812 128.007812 162.699219 141.628906 109.734375 141.628906 C 56.773438 141.628906 13.835938 128.007812 13.835938 111.207031 Z M 13.835938 111.207031 "/>
<path style=" stroke:none;fill-rule:nonzero;fill:rgb(100%,100%,100%);fill-opacity:1;" d="M 163.285156 111.207031 L 205.59375 111.207031 C 205.59375 121.972656 187.957031 131.4375 161.351562 136.84375 C 162.609375 128.683594 163.285156 120.085938 163.285156 111.207031 Z M 163.285156 111.207031 "/>
<use xlink:href="#surface7" mask="url(#mask0)"/>
<use xlink:href="#surface10" mask="url(#mask1)"/>
<path style=" stroke:none;fill-rule:nonzero;fill:rgb(100%,100%,100%);fill-opacity:1;" d="M 154.898438 59.710938 L 154.914062 59.707031 C 160.214844 74.582031 163.285156 92.253906 163.285156 111.207031 C 163.285156 120.085938 162.609375 128.683594 161.351562 136.84375 C 161.347656 136.84375 161.34375 136.84375 161.34375 136.84375 L 109.734375 111.207031 Z M 154.898438 59.710938 "/>
<path style=" stroke:none;fill-rule:nonzero;fill:rgb(0%,0%,0%);fill-opacity:1;" d="M 205.328125 111.203125 C 205.328125 116.398438 201.046875 121.367188 193.40625 125.71875 C 185.765625 130.070312 174.800781 133.78125 161.59375 136.484375 L 161.71875 137.09375 C 174.972656 134.382812 185.984375 130.667969 193.71875 126.265625 C 201.453125 121.863281 205.953125 116.738281 205.953125 111.203125 Z M 205.328125 111.203125 "/>
<path style="fill-rule:evenodd;fill:rgb(0%,0%,0%);fill-opacity:1;stroke-width:1;stroke-linecap:butt;stroke-linejoin:miter;stroke:rgb(0%,0%,0%);stroke-opacity:1;stroke-miterlimit:4;" d="M 335.554695 271.070309 L 339.453133 265.171871 L 323.304695 273.578121 L 341.453133 274.968746 Z M 335.554695 271.070309 " transform="matrix(0.5,0,0,0.5,0,0.00000490579)"/>
<path style="fill:none;stroke-width:0.5;stroke-linecap:butt;stroke-linejoin:miter;stroke:rgb(0%,0%,0%);stroke-opacity:1;stroke-miterlimit:4;" d="M 270.890631 163.781244 C 254.523443 162.335931 237.281255 161.570306 219.468755 161.570306 C 113.546878 161.570306 27.671876 188.812495 27.671876 222.414058 C 27.671876 256.015621 113.546878 283.257809 219.468755 283.257809 C 257.734381 283.257809 293.382819 279.703122 323.304695 273.578121 " transform="matrix(0.5,0,0,0.5,0,0.00000490579)"/>
<path style="fill:none;stroke-width:0.5;stroke-linecap:butt;stroke-linejoin:miter;stroke:rgb(0%,0%,0%);stroke-opacity:1;stroke-miterlimit:4;" d="M 411.265634 222.414058 C 411.265634 200.867182 375.960946 181.929682 322.69532 171.124994 " transform="matrix(0.5,0,0,0.5,0,0.00000490579)"/>
<path style="fill:none;stroke-width:1;stroke-linecap:butt;stroke-linejoin:miter;stroke:rgb(0%,0%,0%);stroke-opacity:1;stroke-miterlimit:4;" d="M 27.585938 222.414058 C 27.585938 328.335935 113.46094 414.210937 219.39063 414.210937 C 325.32032 414.210937 411.187509 328.335935 411.187509 222.414058 C 411.187509 116.484368 325.32032 30.617178 219.39063 30.617178 C 113.46094 30.617178 27.585938 116.484368 27.585938 222.414058 Z M 27.585938 222.414058 " transform="matrix(0.5,0,0,0.5,0,0.00000490579)"/>
<path style="fill:none;stroke-width:0.5;stroke-linecap:butt;stroke-linejoin:miter;stroke:rgb(0%,0%,0%);stroke-opacity:1;stroke-miterlimit:4;" d="M 309.835945 119.406243 C 290.820319 66.023429 257.453131 30.617178 219.476568 30.617178 " transform="matrix(0.5,0,0,0.5,0,0.00000490579)"/>
<path style=" stroke:none;fill-rule:nonzero;fill:rgb(0%,0%,0%);fill-opacity:1;" d="M 156.375 62.890625 L 155.765625 63.0625 C 160.289062 78.890625 162.96875 92.277344 162.96875 111.203125 C 162.96875 120.066406 162.304688 128.652344 161.046875 136.796875 L 161.65625 136.890625 C 162.921875 128.710938 163.59375 120.097656 163.59375 111.203125 C 163.59375 92.21875 160.90625 78.742188 156.375 62.890625 Z M 156.375 62.890625 "/>
<path style=" stroke:none;fill-rule:evenodd;fill:rgb(0%,0%,0%);fill-opacity:1;" d="M 155.242188 70.160156 L 155.832031 62.179688 L 160.550781 68.640625 C 158.652344 67.9375 156.511719 68.558594 155.242188 70.160156 Z M 155.242188 70.160156 "/>
<path style="fill:none;stroke-width:0.5;stroke-linecap:butt;stroke-linejoin:miter;stroke:rgb(0%,0%,0%);stroke-opacity:1;stroke-miterlimit:4;" d="M 326.57032 222.414058 L 411.265634 222.414058 " transform="matrix(0.5,0,0,0.5,0,0.00000490579)"/>
<path style="fill:none;stroke-width:0.5;stroke-linecap:butt;stroke-linejoin:miter;stroke:rgb(0%,0%,0%);stroke-opacity:1;stroke-dasharray:1,2;stroke-miterlimit:4;" d="M 218.960943 222.414058 L 325.69532 222.414058 " transform="matrix(0.5,0,0,0.5,0,0.00000490579)"/>
<path style="fill:none;stroke-width:0.5;stroke-linecap:butt;stroke-linejoin:miter;stroke:rgb(0%,0%,0%);stroke-opacity:1;stroke-miterlimit:4;" d="M 219.468755 222.414058 L 322.703132 273.695309 " transform="matrix(0.5,0,0,0.5,0,0.00000490579)"/>
<path style="fill:none;stroke-width:0.5;stroke-linecap:butt;stroke-linejoin:miter;stroke:rgb(0%,0%,0%);stroke-opacity:1;stroke-miterlimit:4;" d="M 219.468755 222.414058 L 309.796882 119.42968 " transform="matrix(0.5,0,0,0.5,0,0.00000490579)"/>
<path style=" stroke:none;fill-rule:nonzero;fill:rgb(0%,0%,0%);fill-opacity:1;" d="M 106.546875 111.207031 C 106.546875 112.96875 107.976562 114.394531 109.734375 114.394531 C 111.496094 114.394531 112.925781 112.96875 112.925781 111.207031 C 112.925781 109.445312 111.496094 108.019531 109.734375 108.019531 C 107.976562 108.019531 106.546875 109.445312 106.546875 111.207031 Z M 106.546875 111.207031 "/>
<path style="fill:none;stroke-width:0.5;stroke-linecap:butt;stroke-linejoin:miter;stroke:rgb(0%,0%,0%);stroke-opacity:1;stroke-dasharray:1,2;stroke-miterlimit:4;" d="M 321.531257 170.742182 C 309.640632 168.796869 283.421881 164.843744 270.835944 163.820306 " transform="matrix(0.5,0,0,0.5,0,0.00000490579)"/>
<path style=" stroke:none;fill-rule:nonzero;fill:rgb(0%,0%,0%);fill-opacity:1;" d="M 151.855469 59.433594 C 151.855469 61.195312 153.28125 62.621094 155.042969 62.621094 C 156.804688 62.621094 158.230469 61.195312 158.230469 59.433594 C 158.230469 57.671875 156.804688 56.246094 155.042969 56.246094 C 153.28125 56.246094 151.855469 57.671875 151.855469 59.433594 Z M 151.855469 59.433594 "/>
<path style="fill:none;stroke-width:0.5;stroke-linecap:butt;stroke-linejoin:miter;stroke:rgb(0%,0%,0%);stroke-opacity:1;stroke-dasharray:3,3;stroke-miterlimit:4;" d="M 219.273443 222.17187 L 219.273443 30.406241 " transform="matrix(0.5,0,0,0.5,0,0.00000490579)"/>
<path style=" stroke:none;fill-rule:nonzero;fill:rgb(0%,0%,0%);fill-opacity:1;" d="M 92.046875 4.28125 L 98.277344 3.355469 L 98.402344 4.171875 L 94.308594 11.128906 L 99.445312 10.367188 L 99.582031 11.269531 L 93.105469 12.230469 L 92.984375 11.414062 L 97.074219 4.457031 L 92.179688 5.183594 Z M 92.046875 4.28125 "/>
<path style=" stroke:none;fill-rule:nonzero;fill:rgb(0%,0%,0%);fill-opacity:1;" d="M 106.015625 7.523438 L 106.050781 8.007812 L 101.515625 8.328125 C 101.609375 9.003906 101.847656 9.507812 102.242188 9.835938 C 102.632812 10.167969 103.15625 10.308594 103.808594 10.261719 C 104.1875 10.234375 104.550781 10.160156 104.898438 10.042969 C 105.246094 9.925781 105.589844 9.761719 105.925781 9.550781 L 105.992188 10.480469 C 105.652344 10.65625 105.296875 10.796875 104.929688 10.902344 C 104.566406 11.007812 104.191406 11.074219 103.808594 11.101562 C 102.851562 11.167969 102.074219 10.945312 101.476562 10.425781 C 100.875 9.910156 100.542969 9.175781 100.476562 8.226562 C 100.40625 7.246094 100.613281 6.445312 101.105469 5.832031 C 101.59375 5.214844 102.289062 4.878906 103.1875 4.8125 C 103.996094 4.753906 104.652344 4.96875 105.160156 5.457031 C 105.664062 5.941406 105.949219 6.632812 106.015625 7.523438 Z M 105.007812 7.304688 C 104.960938 6.765625 104.78125 6.347656 104.464844 6.046875 C 104.144531 5.746094 103.746094 5.613281 103.257812 5.648438 C 102.707031 5.6875 102.28125 5.875 101.972656 6.207031 C 101.664062 6.542969 101.503906 6.992188 101.492188 7.5625 Z M 105.007812 7.304688 "/>
<path style=" stroke:none;fill-rule:nonzero;fill:rgb(0%,0%,0%);fill-opacity:1;" d="M 112.875 7.105469 L 112.871094 10.734375 L 111.882812 10.734375 L 111.886719 7.136719 C 111.886719 6.566406 111.777344 6.140625 111.554688 5.855469 C 111.335938 5.574219 111.003906 5.429688 110.558594 5.429688 C 110.023438 5.429688 109.601562 5.597656 109.296875 5.9375 C 108.988281 6.277344 108.832031 6.742188 108.832031 7.328125 L 108.824219 10.730469 L 107.832031 10.726562 L 107.839844 4.710938 L 108.835938 4.714844 L 108.832031 5.648438 C 109.070312 5.285156 109.347656 5.015625 109.671875 4.839844 C 109.992188 4.660156 110.359375 4.570312 110.78125 4.570312 C 111.46875 4.574219 111.992188 4.789062 112.347656 5.214844 C 112.699219 5.644531 112.878906 6.273438 112.875 7.105469 Z M 112.875 7.105469 "/>
<path style=" stroke:none;fill-rule:nonzero;fill:rgb(0%,0%,0%);fill-opacity:1;" d="M 115.175781 4.839844 L 116.164062 4.890625 L 115.835938 10.898438 L 114.851562 10.84375 Z M 115.304688 2.5 L 116.289062 2.554688 L 116.222656 3.804688 L 115.234375 3.75 Z M 115.304688 2.5 "/>
<path style=" stroke:none;fill-rule:nonzero;fill:rgb(0%,0%,0%);fill-opacity:1;" d="M 119.585938 3.4375 L 119.425781 5.140625 L 121.453125 5.328125 L 121.382812 6.09375 L 119.355469 5.902344 L 119.050781 9.15625 C 119.007812 9.644531 119.042969 9.964844 119.164062 10.117188 C 119.285156 10.265625 119.550781 10.363281 119.960938 10.398438 L 120.972656 10.496094 L 120.894531 11.316406 L 119.882812 11.222656 C 119.125 11.152344 118.613281 10.960938 118.351562 10.652344 C 118.089844 10.339844 117.992188 9.8125 118.0625 9.0625 L 118.367188 5.8125 L 117.644531 5.746094 L 117.714844 4.980469 L 118.4375 5.046875 L 118.59375 3.347656 Z M 119.585938 3.4375 "/>
<path style=" stroke:none;fill-rule:nonzero;fill:rgb(0%,0%,0%);fill-opacity:1;" d="M 127.6875 8.628906 L 127.136719 12.21875 L 126.160156 12.066406 L 126.703125 8.511719 C 126.789062 7.949219 126.746094 7.511719 126.570312 7.195312 C 126.390625 6.882812 126.085938 6.695312 125.644531 6.625 C 125.117188 6.546875 124.675781 6.648438 124.320312 6.941406 C 123.964844 7.230469 123.742188 7.664062 123.652344 8.246094 L 123.140625 11.605469 L 122.15625 11.453125 L 123.421875 3.195312 L 124.40625 3.34375 L 123.910156 6.582031 C 124.195312 6.261719 124.511719 6.035156 124.855469 5.90625 C 125.199219 5.78125 125.578125 5.746094 125.992188 5.808594 C 126.675781 5.914062 127.160156 6.207031 127.445312 6.683594 C 127.730469 7.160156 127.8125 7.808594 127.6875 8.628906 Z M 127.6875 8.628906 "/>
<path style=" stroke:none;fill-rule:nonzero;fill:rgb(0%,0%,0%);fill-opacity:1;" d="M 4.167969 89.375 L 5.300781 89.535156 C 4.914062 89.851562 4.605469 90.199219 4.382812 90.585938 C 4.15625 90.972656 4.011719 91.394531 3.945312 91.855469 C 3.816406 92.761719 3.992188 93.496094 4.480469 94.058594 C 4.964844 94.621094 5.734375 94.976562 6.78125 95.125 C 7.828125 95.273438 8.664062 95.148438 9.285156 94.746094 C 9.910156 94.34375 10.285156 93.6875 10.417969 92.78125 C 10.484375 92.320312 10.460938 91.871094 10.351562 91.4375 C 10.246094 91.003906 10.046875 90.585938 9.761719 90.175781 L 10.886719 90.335938 C 11.085938 90.746094 11.222656 91.171875 11.289062 91.609375 C 11.355469 92.046875 11.355469 92.5 11.289062 92.96875 C 11.117188 94.171875 10.617188 95.066406 9.78125 95.652344 C 8.945312 96.238281 7.894531 96.441406 6.621094 96.257812 C 5.34375 96.074219 4.386719 95.585938 3.75 94.789062 C 3.113281 93.992188 2.882812 92.996094 3.054688 91.792969 C 3.121094 91.316406 3.25 90.878906 3.433594 90.476562 C 3.621094 90.074219 3.867188 89.707031 4.167969 89.375 Z M 4.167969 89.375 "/>
<path style=" stroke:none;fill-rule:nonzero;fill:rgb(0%,0%,0%);fill-opacity:1;" d="M 9.78125 83.074219 L 10.253906 83.179688 L 9.257812 87.613281 C 9.929688 87.722656 10.480469 87.636719 10.910156 87.355469 C 11.335938 87.074219 11.621094 86.617188 11.765625 85.976562 C 11.847656 85.605469 11.882812 85.238281 11.871094 84.871094 C 11.859375 84.5 11.800781 84.125 11.695312 83.742188 L 12.609375 83.949219 C 12.675781 84.324219 12.707031 84.707031 12.703125 85.085938 C 12.699219 85.46875 12.65625 85.84375 12.570312 86.21875 C 12.359375 87.15625 11.921875 87.835938 11.253906 88.257812 C 10.585938 88.683594 9.785156 88.789062 8.859375 88.582031 C 7.898438 88.367188 7.191406 87.933594 6.746094 87.289062 C 6.296875 86.644531 6.171875 85.882812 6.371094 85 C 6.546875 84.210938 6.941406 83.644531 7.554688 83.296875 C 8.164062 82.953125 8.90625 82.878906 9.78125 83.074219 Z M 9.28125 83.976562 C 8.753906 83.863281 8.296875 83.917969 7.917969 84.136719 C 7.539062 84.351562 7.296875 84.699219 7.191406 85.175781 C 7.070312 85.710938 7.125 86.175781 7.355469 86.566406 C 7.585938 86.960938 7.972656 87.242188 8.515625 87.414062 Z M 9.28125 83.976562 "/>
<path style=" stroke:none;fill-rule:nonzero;fill:rgb(0%,0%,0%);fill-opacity:1;" d="M 5.371094 79.964844 L 5.640625 79.011719 L 13.683594 81.28125 L 13.414062 82.230469 Z M 5.371094 79.964844 "/>
<path style=" stroke:none;fill-rule:nonzero;fill:rgb(0%,0%,0%);fill-opacity:1;" d="M 12.828125 73.375 L 13.285156 73.53125 L 11.820312 77.832031 C 12.476562 78.011719 13.035156 77.984375 13.488281 77.75 C 13.945312 77.519531 14.277344 77.09375 14.488281 76.472656 C 14.613281 76.113281 14.6875 75.75 14.714844 75.382812 C 14.738281 75.015625 14.722656 74.636719 14.660156 74.242188 L 15.542969 74.542969 C 15.570312 74.929688 15.5625 75.308594 15.515625 75.6875 C 15.472656 76.066406 15.386719 76.4375 15.265625 76.796875 C 14.953125 77.707031 14.445312 78.335938 13.734375 78.6875 C 13.027344 79.039062 12.222656 79.058594 11.320312 78.753906 C 10.386719 78.433594 9.734375 77.929688 9.355469 77.242188 C 8.980469 76.550781 8.9375 75.78125 9.230469 74.925781 C 9.488281 74.160156 9.941406 73.636719 10.585938 73.359375 C 11.234375 73.082031 11.980469 73.085938 12.828125 73.375 Z M 12.234375 74.21875 C 11.71875 74.050781 11.261719 74.054688 10.863281 74.230469 C 10.460938 74.40625 10.183594 74.722656 10.027344 75.183594 C 9.847656 75.707031 9.851562 76.175781 10.042969 76.589844 C 10.230469 77.003906 10.582031 77.324219 11.101562 77.554688 Z M 12.234375 74.21875 "/>
<path style=" stroke:none;fill-rule:nonzero;fill:rgb(0%,0%,0%);fill-opacity:1;" d="M 12.605469 67.128906 L 13.464844 67.488281 C 13.226562 67.691406 13.015625 67.917969 12.832031 68.167969 C 12.652344 68.417969 12.5 68.691406 12.375 68.988281 C 12.183594 69.441406 12.113281 69.808594 12.15625 70.09375 C 12.203125 70.378906 12.363281 70.578125 12.640625 70.695312 C 12.851562 70.78125 13.050781 70.769531 13.238281 70.660156 C 13.425781 70.546875 13.679688 70.269531 13.992188 69.828125 L 14.191406 69.542969 C 14.601562 68.953125 14.988281 68.574219 15.355469 68.410156 C 15.722656 68.242188 16.132812 68.253906 16.585938 68.441406 C 17.101562 68.65625 17.421875 69.03125 17.554688 69.566406 C 17.683594 70.097656 17.597656 70.722656 17.300781 71.4375 C 17.175781 71.734375 17.019531 72.03125 16.824219 72.328125 C 16.632812 72.628906 16.40625 72.929688 16.140625 73.238281 L 15.199219 72.847656 C 15.515625 72.582031 15.785156 72.304688 16.007812 72.015625 C 16.234375 71.722656 16.410156 71.417969 16.546875 71.097656 C 16.726562 70.667969 16.789062 70.308594 16.738281 70.015625 C 16.6875 69.722656 16.53125 69.519531 16.261719 69.40625 C 16.015625 69.304688 15.789062 69.308594 15.589844 69.421875 C 15.386719 69.53125 15.105469 69.84375 14.746094 70.359375 L 14.539062 70.644531 C 14.1875 71.160156 13.832031 71.492188 13.480469 71.640625 C 13.128906 71.789062 12.742188 71.773438 12.3125 71.59375 C 11.789062 71.375 11.464844 71.023438 11.332031 70.53125 C 11.203125 70.042969 11.28125 69.460938 11.566406 68.777344 C 11.707031 68.441406 11.863281 68.136719 12.039062 67.859375 C 12.210938 67.582031 12.398438 67.339844 12.605469 67.128906 Z M 12.605469 67.128906 "/>
<path style=" stroke:none;fill-rule:nonzero;fill:rgb(0%,0%,0%);fill-opacity:1;" d="M 12.261719 63.417969 L 13.800781 64.160156 L 14.683594 62.328125 L 15.378906 62.660156 L 14.492188 64.492188 L 17.433594 65.914062 C 17.875 66.125 18.1875 66.203125 18.371094 66.140625 C 18.554688 66.082031 18.738281 65.867188 18.917969 65.496094 L 19.359375 64.582031 L 20.101562 64.941406 L 19.660156 65.855469 C 19.332031 66.542969 18.972656 66.953125 18.589844 67.089844 C 18.207031 67.230469 17.679688 67.132812 17 66.808594 L 14.058594 65.386719 L 13.746094 66.042969 L 13.054688 65.707031 L 13.367188 65.054688 L 11.832031 64.3125 Z M 12.261719 63.417969 "/>
<path style=" stroke:none;fill-rule:nonzero;fill:rgb(0%,0%,0%);fill-opacity:1;" d="M 15.40625 60.964844 L 15.871094 60.089844 L 21.183594 62.917969 L 20.71875 63.789062 Z M 13.339844 59.863281 L 13.804688 58.992188 L 14.910156 59.578125 L 14.445312 60.453125 Z M 13.339844 59.863281 "/>
<path style=" stroke:none;fill-rule:nonzero;fill:rgb(0%,0%,0%);fill-opacity:1;" d="M 20.972656 57.195312 C 20.558594 57.882812 20.351562 58.402344 20.351562 58.761719 C 20.347656 59.121094 20.539062 59.410156 20.914062 59.636719 C 21.214844 59.820312 21.515625 59.863281 21.808594 59.769531 C 22.105469 59.679688 22.355469 59.460938 22.558594 59.121094 C 22.839844 58.652344 22.902344 58.175781 22.738281 57.691406 C 22.574219 57.207031 22.21875 56.800781 21.664062 56.46875 L 21.476562 56.355469 Z M 21.636719 55.296875 L 24.578125 57.0625 L 24.070312 57.910156 L 23.285156 57.441406 C 23.484375 57.824219 23.570312 58.203125 23.546875 58.578125 C 23.519531 58.957031 23.382812 59.355469 23.132812 59.773438 C 22.816406 60.300781 22.414062 60.632812 21.933594 60.765625 C 21.449219 60.898438 20.957031 60.816406 20.460938 60.519531 C 19.882812 60.171875 19.558594 59.714844 19.5 59.148438 C 19.4375 58.582031 19.636719 57.914062 20.101562 57.144531 L 20.8125 55.957031 L 20.730469 55.90625 C 20.339844 55.671875 19.960938 55.621094 19.59375 55.746094 C 19.226562 55.875 18.90625 56.171875 18.625 56.636719 C 18.449219 56.929688 18.3125 57.238281 18.214844 57.558594 C 18.117188 57.882812 18.0625 58.214844 18.050781 58.558594 L 17.265625 58.085938 C 17.332031 57.707031 17.425781 57.351562 17.539062 57.023438 C 17.65625 56.695312 17.792969 56.394531 17.960938 56.117188 C 18.410156 55.371094 18.9375 54.929688 19.542969 54.792969 C 20.152344 54.65625 20.847656 54.824219 21.636719 55.296875 Z M 21.636719 55.296875 "/>
<path style=" stroke:none;fill-rule:nonzero;fill:rgb(0%,0%,0%);fill-opacity:1;" d="M 18.78125 50.703125 L 19.332031 49.882812 L 26.265625 54.546875 L 25.714844 55.367188 Z M 18.78125 50.703125 "/>
<path style=" stroke:none;fill-rule:nonzero;fill:rgb(0%,0%,0%);fill-opacity:1;" d="M 23.339844 44.828125 L 24.375 43.585938 L 29.878906 45.507812 L 27 40.433594 L 28.035156 39.191406 L 34.195312 44.324219 L 33.519531 45.136719 L 28.109375 40.632812 L 31.011719 45.742188 L 30.3125 46.578125 L 24.765625 44.644531 L 30.175781 49.152344 L 29.5 49.960938 Z M 23.339844 44.828125 "/>
<path style=" stroke:none;fill-rule:nonzero;fill:rgb(0%,0%,0%);fill-opacity:1;" d="M 36.96875 36.847656 L 37.3125 37.1875 L 34.117188 40.417969 C 34.628906 40.863281 35.140625 41.082031 35.652344 41.074219 C 36.164062 41.0625 36.652344 40.824219 37.113281 40.359375 C 37.378906 40.089844 37.605469 39.796875 37.789062 39.476562 C 37.972656 39.15625 38.125 38.808594 38.238281 38.429688 L 38.902344 39.085938 C 38.757812 39.441406 38.585938 39.78125 38.378906 40.101562 C 38.171875 40.421875 37.9375 40.71875 37.667969 40.992188 C 36.992188 41.671875 36.257812 42.015625 35.46875 42.023438 C 34.675781 42.027344 33.941406 41.695312 33.265625 41.027344 C 32.566406 40.332031 32.195312 39.59375 32.160156 38.808594 C 32.121094 38.023438 32.421875 37.3125 33.054688 36.671875 C 33.625 36.09375 34.261719 35.824219 34.960938 35.855469 C 35.664062 35.886719 36.332031 36.21875 36.96875 36.847656 Z M 36.066406 37.34375 C 35.675781 36.96875 35.265625 36.773438 34.828125 36.757812 C 34.390625 36.742188 34 36.90625 33.660156 37.25 C 33.269531 37.644531 33.070312 38.066406 33.058594 38.523438 C 33.046875 38.976562 33.226562 39.421875 33.59375 39.855469 Z M 36.066406 37.34375 "/>
<path style=" stroke:none;fill-rule:nonzero;fill:rgb(0%,0%,0%);fill-opacity:1;" d="M 39.6875 31.933594 C 39.5625 31.957031 39.441406 32.003906 39.324219 32.070312 C 39.207031 32.132812 39.089844 32.21875 38.972656 32.324219 C 38.554688 32.695312 38.355469 33.117188 38.375 33.585938 C 38.398438 34.058594 38.632812 34.546875 39.085938 35.054688 L 41.203125 37.414062 L 40.460938 38.074219 L 36.449219 33.59375 L 37.1875 32.933594 L 37.8125 33.628906 C 37.722656 33.21875 37.742188 32.835938 37.871094 32.480469 C 38.003906 32.128906 38.246094 31.792969 38.597656 31.472656 C 38.648438 31.429688 38.710938 31.382812 38.777344 31.332031 C 38.84375 31.285156 38.921875 31.234375 39.007812 31.179688 Z M 39.6875 31.933594 "/>
<path style=" stroke:none;fill-rule:nonzero;fill:rgb(0%,0%,0%);fill-opacity:1;" d="M 40.078125 30.429688 L 40.839844 29.800781 L 44.667969 34.441406 L 43.902344 35.070312 Z M 38.585938 28.621094 L 39.347656 27.992188 L 40.144531 28.957031 L 39.382812 29.585938 Z M 38.585938 28.621094 "/>
<path style=" stroke:none;fill-rule:nonzero;fill:rgb(0%,0%,0%);fill-opacity:1;" d="M 46.425781 26.671875 L 44.496094 24.050781 L 45.292969 23.464844 L 50.246094 30.199219 L 49.449219 30.78125 L 48.914062 30.054688 C 48.957031 30.46875 48.90625 30.835938 48.753906 31.164062 C 48.601562 31.492188 48.34375 31.789062 47.988281 32.050781 C 47.402344 32.480469 46.753906 32.597656 46.042969 32.402344 C 45.332031 32.207031 44.695312 31.726562 44.132812 30.964844 C 43.574219 30.203125 43.304688 29.453125 43.332031 28.714844 C 43.355469 27.980469 43.660156 27.394531 44.246094 26.964844 C 44.601562 26.699219 44.960938 26.542969 45.316406 26.496094 C 45.675781 26.449219 46.046875 26.507812 46.425781 26.671875 Z M 44.957031 30.359375 C 45.386719 30.945312 45.847656 31.316406 46.332031 31.472656 C 46.816406 31.628906 47.269531 31.550781 47.691406 31.242188 C 48.113281 30.933594 48.324219 30.519531 48.320312 30.011719 C 48.316406 29.5 48.101562 28.949219 47.667969 28.363281 C 47.238281 27.777344 46.78125 27.410156 46.292969 27.253906 C 45.804688 27.097656 45.351562 27.175781 44.929688 27.488281 C 44.507812 27.796875 44.300781 28.207031 44.304688 28.714844 C 44.308594 29.226562 44.527344 29.773438 44.957031 30.359375 Z M 44.957031 30.359375 "/>
<path style=" stroke:none;fill-rule:nonzero;fill:rgb(0%,0%,0%);fill-opacity:1;" d="M 48.664062 24.042969 L 49.492188 23.503906 L 52.777344 28.542969 L 51.949219 29.082031 Z M 47.386719 22.082031 L 48.214844 21.542969 L 48.898438 22.589844 L 48.070312 23.128906 Z M 47.386719 22.082031 "/>
<path style=" stroke:none;fill-rule:nonzero;fill:rgb(0%,0%,0%);fill-opacity:1;" d="M 55.378906 23.4375 C 54.6875 23.835938 54.25 24.1875 54.074219 24.5 C 53.898438 24.8125 53.917969 25.160156 54.136719 25.542969 C 54.3125 25.847656 54.550781 26.03125 54.855469 26.09375 C 55.15625 26.15625 55.480469 26.089844 55.824219 25.894531 C 56.300781 25.621094 56.585938 25.234375 56.679688 24.730469 C 56.773438 24.230469 56.660156 23.699219 56.339844 23.140625 L 56.230469 22.949219 Z M 56.886719 22.105469 L 58.59375 25.082031 L 57.734375 25.574219 L 57.28125 24.78125 C 57.265625 25.210938 57.15625 25.582031 56.949219 25.902344 C 56.746094 26.21875 56.429688 26.5 56.007812 26.742188 C 55.472656 27.046875 54.964844 27.140625 54.476562 27.023438 C 53.988281 26.902344 53.601562 26.59375 53.3125 26.089844 C 52.976562 25.5 52.917969 24.945312 53.140625 24.421875 C 53.363281 23.898438 53.863281 23.414062 54.644531 22.96875 L 55.847656 22.277344 L 55.800781 22.195312 C 55.574219 21.800781 55.269531 21.570312 54.886719 21.5 C 54.503906 21.433594 54.074219 21.535156 53.605469 21.804688 C 53.308594 21.976562 53.039062 22.175781 52.796875 22.410156 C 52.554688 22.644531 52.34375 22.90625 52.164062 23.199219 L 51.710938 22.40625 C 51.957031 22.105469 52.207031 21.839844 52.46875 21.609375 C 52.730469 21.382812 53 21.1875 53.277344 21.027344 C 54.035156 20.59375 54.710938 20.464844 55.308594 20.644531 C 55.902344 20.820312 56.429688 21.308594 56.886719 22.105469 Z M 56.886719 22.105469 "/>
<path style=" stroke:none;fill-rule:nonzero;fill:rgb(0%,0%,0%);fill-opacity:1;" d="M 63.402344 18.734375 L 64.933594 22.023438 L 64.039062 22.441406 L 62.519531 19.179688 C 62.28125 18.664062 62 18.324219 61.679688 18.160156 C 61.359375 17.996094 60.996094 18.011719 60.59375 18.199219 C 60.109375 18.421875 59.800781 18.753906 59.664062 19.191406 C 59.53125 19.632812 59.585938 20.117188 59.832031 20.648438 L 61.269531 23.730469 L 60.367188 24.152344 L 57.828125 18.699219 L 58.730469 18.277344 L 59.125 19.125 C 59.1875 18.699219 59.324219 18.335938 59.539062 18.039062 C 59.753906 17.738281 60.050781 17.503906 60.429688 17.324219 C 61.058594 17.035156 61.621094 17.007812 62.125 17.246094 C 62.625 17.484375 63.050781 17.980469 63.402344 18.734375 Z M 63.402344 18.734375 "/>
<path style=" stroke:none;fill-rule:nonzero;fill:rgb(0%,0%,0%);fill-opacity:1;" d="M 131.605469 54.125 L 131.605469 55.183594 C 131.195312 54.984375 130.804688 54.839844 130.441406 54.742188 C 130.074219 54.644531 129.722656 54.597656 129.382812 54.597656 C 128.792969 54.597656 128.335938 54.710938 128.015625 54.941406 C 127.695312 55.171875 127.535156 55.496094 127.535156 55.917969 C 127.535156 56.273438 127.640625 56.539062 127.855469 56.722656 C 128.066406 56.902344 128.472656 57.046875 129.066406 57.160156 L 129.722656 57.292969 C 130.53125 57.449219 131.128906 57.71875 131.511719 58.105469 C 131.898438 58.496094 132.089844 59.015625 132.089844 59.667969 C 132.089844 60.445312 131.828125 61.035156 131.308594 61.433594 C 130.789062 61.835938 130.023438 62.035156 129.015625 62.035156 C 128.636719 62.035156 128.234375 61.992188 127.804688 61.90625 C 127.378906 61.820312 126.933594 61.695312 126.476562 61.527344 L 126.476562 60.410156 C 126.917969 60.65625 127.347656 60.84375 127.769531 60.96875 C 128.195312 61.09375 128.609375 61.15625 129.015625 61.15625 C 129.636719 61.15625 130.113281 61.035156 130.453125 60.789062 C 130.789062 60.546875 130.957031 60.199219 130.957031 59.75 C 130.957031 59.355469 130.835938 59.046875 130.59375 58.824219 C 130.351562 58.601562 129.957031 58.4375 129.402344 58.324219 L 128.742188 58.195312 C 127.933594 58.035156 127.347656 57.78125 126.988281 57.4375 C 126.625 57.09375 126.445312 56.617188 126.445312 56.003906 C 126.445312 55.296875 126.695312 54.738281 127.195312 54.328125 C 127.695312 53.921875 128.382812 53.714844 129.257812 53.714844 C 129.636719 53.714844 130.019531 53.75 130.410156 53.820312 C 130.800781 53.886719 131.199219 53.988281 131.605469 54.125 Z M 131.605469 54.125 "/>
<path style=" stroke:none;fill-rule:nonzero;fill:rgb(0%,0%,0%);fill-opacity:1;" d="M 134.714844 54.15625 L 134.714844 55.863281 L 136.75 55.863281 L 136.75 56.632812 L 134.714844 56.632812 L 134.714844 59.898438 C 134.714844 60.390625 134.785156 60.703125 134.917969 60.84375 C 135.050781 60.984375 135.324219 61.054688 135.738281 61.054688 L 136.75 61.054688 L 136.75 61.878906 L 135.738281 61.878906 C 134.972656 61.878906 134.449219 61.738281 134.15625 61.453125 C 133.867188 61.167969 133.722656 60.652344 133.722656 59.898438 L 133.722656 56.632812 L 132.996094 56.632812 L 132.996094 55.863281 L 133.722656 55.863281 L 133.722656 54.15625 Z M 134.714844 54.15625 "/>
<path style=" stroke:none;fill-rule:nonzero;fill:rgb(0%,0%,0%);fill-opacity:1;" d="M 140.789062 58.855469 C 139.992188 58.855469 139.4375 58.949219 139.132812 59.128906 C 138.824219 59.3125 138.667969 59.625 138.667969 60.066406 C 138.667969 60.414062 138.785156 60.695312 139.015625 60.898438 C 139.246094 61.105469 139.5625 61.210938 139.957031 61.210938 C 140.507812 61.210938 140.945312 61.015625 141.277344 60.625 C 141.609375 60.238281 141.773438 59.722656 141.773438 59.078125 L 141.773438 58.855469 Z M 142.761719 58.449219 L 142.761719 61.878906 L 141.773438 61.878906 L 141.773438 60.96875 C 141.546875 61.332031 141.265625 61.601562 140.929688 61.777344 C 140.59375 61.949219 140.183594 62.035156 139.695312 62.035156 C 139.078125 62.035156 138.589844 61.863281 138.226562 61.519531 C 137.863281 61.171875 137.679688 60.710938 137.679688 60.128906 C 137.679688 59.453125 137.90625 58.941406 138.359375 58.597656 C 138.8125 58.253906 139.488281 58.082031 140.386719 58.082031 L 141.773438 58.082031 L 141.773438 57.988281 C 141.773438 57.53125 141.625 57.179688 141.324219 56.929688 C 141.027344 56.683594 140.605469 56.558594 140.066406 56.558594 C 139.722656 56.558594 139.386719 56.597656 139.0625 56.679688 C 138.734375 56.761719 138.421875 56.886719 138.121094 57.050781 L 138.121094 56.140625 C 138.484375 56 138.835938 55.894531 139.175781 55.824219 C 139.515625 55.753906 139.84375 55.71875 140.167969 55.71875 C 141.039062 55.71875 141.6875 55.945312 142.117188 56.398438 C 142.546875 56.847656 142.761719 57.53125 142.761719 58.449219 Z M 142.761719 58.449219 "/>
<path style=" stroke:none;fill-rule:nonzero;fill:rgb(0%,0%,0%);fill-opacity:1;" d="M 148.289062 56.789062 C 148.179688 56.722656 148.058594 56.675781 147.925781 56.644531 C 147.796875 56.617188 147.652344 56.601562 147.492188 56.601562 C 146.933594 56.601562 146.507812 56.78125 146.207031 57.144531 C 145.910156 57.507812 145.757812 58.03125 145.757812 58.710938 L 145.757812 61.878906 L 144.765625 61.878906 L 144.765625 55.863281 L 145.757812 55.863281 L 145.757812 56.800781 C 145.96875 56.433594 146.238281 56.164062 146.570312 55.984375 C 146.902344 55.808594 147.308594 55.71875 147.785156 55.71875 C 147.851562 55.71875 147.925781 55.722656 148.007812 55.734375 C 148.09375 55.742188 148.183594 55.753906 148.285156 55.773438 Z M 148.289062 56.789062 "/>
<path style=" stroke:none;fill-rule:nonzero;fill:rgb(0%,0%,0%);fill-opacity:1;" d="M 55.761719 106.925781 C 54.972656 106.925781 54.347656 107.21875 53.886719 107.804688 C 53.421875 108.390625 53.191406 109.191406 53.191406 110.207031 C 53.191406 111.214844 53.421875 112.015625 53.886719 112.601562 C 54.347656 113.1875 54.972656 113.484375 55.761719 113.484375 C 56.550781 113.484375 57.175781 113.1875 57.632812 112.601562 C 58.09375 112.015625 58.324219 111.214844 58.324219 110.207031 C 58.324219 109.191406 58.09375 108.390625 57.632812 107.804688 C 57.175781 107.21875 56.550781 106.925781 55.761719 106.925781 Z M 55.761719 106.042969 C 56.886719 106.042969 57.785156 106.421875 58.457031 107.175781 C 59.132812 107.929688 59.46875 108.9375 59.46875 110.207031 C 59.46875 111.46875 59.132812 112.480469 58.457031 113.234375 C 57.785156 113.988281 56.886719 114.363281 55.761719 114.363281 C 54.632812 114.363281 53.734375 113.988281 53.058594 113.234375 C 52.382812 112.484375 52.046875 111.472656 52.046875 110.207031 C 52.046875 108.9375 52.382812 107.929688 53.058594 107.175781 C 53.734375 106.421875 54.632812 106.042969 55.761719 106.042969 Z M 55.761719 106.042969 "/>
<path style=" stroke:none;fill-rule:nonzero;fill:rgb(0%,0%,0%);fill-opacity:1;" d="M 65.441406 111.207031 C 65.441406 110.476562 65.292969 109.90625 64.992188 109.496094 C 64.695312 109.082031 64.28125 108.875 63.761719 108.875 C 63.238281 108.875 62.824219 109.082031 62.527344 109.496094 C 62.226562 109.90625 62.078125 110.476562 62.078125 111.207031 C 62.078125 111.933594 62.226562 112.503906 62.527344 112.914062 C 62.824219 113.328125 63.238281 113.535156 63.761719 113.535156 C 64.28125 113.535156 64.695312 113.328125 64.992188 112.914062 C 65.292969 112.503906 65.441406 111.933594 65.441406 111.207031 Z M 62.078125 109.105469 C 62.285156 108.746094 62.546875 108.480469 62.867188 108.308594 C 63.183594 108.132812 63.5625 108.046875 64 108.046875 C 64.730469 108.046875 65.324219 108.335938 65.78125 108.917969 C 66.238281 109.496094 66.46875 110.261719 66.46875 111.207031 C 66.46875 112.152344 66.238281 112.914062 65.78125 113.492188 C 65.324219 114.074219 64.730469 114.363281 64 114.363281 C 63.5625 114.363281 63.183594 114.277344 62.867188 114.101562 C 62.546875 113.929688 62.285156 113.664062 62.078125 113.304688 L 62.078125 114.207031 L 61.085938 114.207031 L 61.085938 105.851562 L 62.078125 105.851562 Z M 62.078125 109.105469 "/>
<path style=" stroke:none;fill-rule:nonzero;fill:rgb(0%,0%,0%);fill-opacity:1;" d="M 71.941406 108.371094 L 71.941406 109.304688 C 71.660156 109.160156 71.371094 109.054688 71.070312 108.980469 C 70.769531 108.910156 70.457031 108.875 70.136719 108.875 C 69.644531 108.875 69.277344 108.949219 69.03125 109.101562 C 68.785156 109.25 68.664062 109.476562 68.664062 109.777344 C 68.664062 110.003906 68.75 110.1875 68.925781 110.316406 C 69.101562 110.445312 69.453125 110.570312 69.984375 110.691406 L 70.324219 110.765625 C 71.023438 110.914062 71.523438 111.128906 71.820312 111.402344 C 72.113281 111.675781 72.261719 112.058594 72.261719 112.546875 C 72.261719 113.105469 72.042969 113.546875 71.597656 113.875 C 71.15625 114.199219 70.550781 114.363281 69.777344 114.363281 C 69.453125 114.363281 69.117188 114.332031 68.769531 114.269531 C 68.417969 114.207031 68.050781 114.113281 67.664062 113.988281 L 67.664062 112.96875 C 68.03125 113.15625 68.390625 113.300781 68.746094 113.394531 C 69.097656 113.488281 69.449219 113.535156 69.796875 113.535156 C 70.261719 113.535156 70.621094 113.457031 70.871094 113.296875 C 71.121094 113.136719 71.246094 112.914062 71.246094 112.625 C 71.246094 112.355469 71.15625 112.148438 70.976562 112.003906 C 70.796875 111.863281 70.398438 111.722656 69.785156 111.59375 L 69.441406 111.511719 C 68.832031 111.382812 68.386719 111.183594 68.117188 110.917969 C 67.84375 110.652344 67.707031 110.285156 67.707031 109.820312 C 67.707031 109.253906 67.90625 108.816406 68.308594 108.507812 C 68.710938 108.199219 69.28125 108.046875 70.015625 108.046875 C 70.382812 108.046875 70.726562 108.074219 71.046875 108.128906 C 71.371094 108.179688 71.667969 108.261719 71.941406 108.371094 Z M 71.941406 108.371094 "/>
<path style=" stroke:none;fill-rule:nonzero;fill:rgb(0%,0%,0%);fill-opacity:1;" d="M 78.988281 110.953125 L 78.988281 111.4375 L 74.441406 111.4375 C 74.484375 112.117188 74.691406 112.636719 75.058594 112.992188 C 75.425781 113.347656 75.9375 113.527344 76.589844 113.527344 C 76.972656 113.527344 77.339844 113.480469 77.695312 113.386719 C 78.050781 113.292969 78.40625 113.152344 78.757812 112.96875 L 78.757812 113.902344 C 78.402344 114.050781 78.039062 114.167969 77.664062 114.246094 C 77.292969 114.324219 76.914062 114.363281 76.53125 114.363281 C 75.574219 114.363281 74.8125 114.085938 74.253906 113.527344 C 73.691406 112.96875 73.410156 112.210938 73.410156 111.257812 C 73.410156 110.273438 73.675781 109.492188 74.210938 108.914062 C 74.742188 108.335938 75.457031 108.046875 76.359375 108.046875 C 77.167969 108.046875 77.808594 108.308594 78.28125 108.828125 C 78.75 109.347656 78.988281 110.058594 78.988281 110.953125 Z M 78 110.664062 C 77.992188 110.121094 77.839844 109.691406 77.542969 109.367188 C 77.25 109.046875 76.859375 108.886719 76.371094 108.886719 C 75.820312 108.886719 75.378906 109.039062 75.046875 109.351562 C 74.714844 109.664062 74.523438 110.101562 74.476562 110.667969 Z M 78 110.664062 "/>
<path style=" stroke:none;fill-rule:nonzero;fill:rgb(0%,0%,0%);fill-opacity:1;" d="M 84.09375 109.117188 C 83.984375 109.050781 83.863281 109.003906 83.730469 108.972656 C 83.601562 108.941406 83.457031 108.929688 83.300781 108.929688 C 82.742188 108.929688 82.3125 109.109375 82.011719 109.472656 C 81.714844 109.835938 81.566406 110.359375 81.566406 111.039062 L 81.566406 114.207031 L 80.570312 114.207031 L 80.570312 108.191406 L 81.566406 108.191406 L 81.566406 109.125 C 81.773438 108.761719 82.042969 108.488281 82.375 108.3125 C 82.710938 108.136719 83.113281 108.046875 83.589844 108.046875 C 83.65625 108.046875 83.734375 108.050781 83.816406 108.058594 C 83.898438 108.070312 83.988281 108.082031 84.089844 108.101562 Z M 84.09375 109.117188 "/>
<path style=" stroke:none;fill-rule:nonzero;fill:rgb(0%,0%,0%);fill-opacity:1;" d="M 84.433594 108.191406 L 85.480469 108.191406 L 87.359375 113.242188 L 89.242188 108.191406 L 90.289062 108.191406 L 88.03125 114.207031 L 86.6875 114.207031 Z M 84.433594 108.191406 "/>
<path style=" stroke:none;fill-rule:nonzero;fill:rgb(0%,0%,0%);fill-opacity:1;" d="M 96.796875 110.953125 L 96.796875 111.4375 L 92.253906 111.4375 C 92.296875 112.117188 92.5 112.636719 92.867188 112.992188 C 93.234375 113.347656 93.746094 113.527344 94.402344 113.527344 C 94.78125 113.527344 95.148438 113.480469 95.503906 113.386719 C 95.863281 113.292969 96.214844 113.152344 96.566406 112.96875 L 96.566406 113.902344 C 96.210938 114.050781 95.847656 114.167969 95.476562 114.246094 C 95.105469 114.324219 94.726562 114.363281 94.34375 114.363281 C 93.382812 114.363281 92.625 114.085938 92.0625 113.527344 C 91.503906 112.96875 91.222656 112.210938 91.222656 111.257812 C 91.222656 110.273438 91.488281 109.492188 92.019531 108.914062 C 92.550781 108.335938 93.269531 108.046875 94.171875 108.046875 C 94.980469 108.046875 95.621094 108.308594 96.089844 108.828125 C 96.5625 109.347656 96.796875 110.058594 96.796875 110.953125 Z M 95.808594 110.664062 C 95.800781 110.121094 95.652344 109.691406 95.355469 109.367188 C 95.058594 109.046875 94.667969 108.886719 94.183594 108.886719 C 93.628906 108.886719 93.1875 109.039062 92.859375 109.351562 C 92.527344 109.664062 92.335938 110.101562 92.285156 110.667969 Z M 95.808594 110.664062 "/>
<path style=" stroke:none;fill-rule:nonzero;fill:rgb(0%,0%,0%);fill-opacity:1;" d="M 101.90625 109.117188 C 101.792969 109.050781 101.671875 109.003906 101.542969 108.972656 C 101.410156 108.941406 101.269531 108.929688 101.109375 108.929688 C 100.550781 108.929688 100.121094 109.109375 99.824219 109.472656 C 99.523438 109.835938 99.375 110.359375 99.375 111.039062 L 99.375 114.207031 L 98.382812 114.207031 L 98.382812 108.191406 L 99.375 108.191406 L 99.375 109.125 C 99.582031 108.761719 99.855469 108.488281 100.1875 108.3125 C 100.519531 108.136719 100.925781 108.046875 101.402344 108.046875 C 101.46875 108.046875 101.542969 108.050781 101.625 108.058594 C 101.707031 108.070312 101.800781 108.082031 101.898438 108.101562 Z M 101.90625 109.117188 "/>
<path style=" stroke:none;fill-rule:nonzero;fill:rgb(0%,0%,0%);fill-opacity:1;" d="M 37.425781 119.28125 L 38.460938 119.613281 L 37.460938 122.742188 L 41.214844 123.945312 L 42.214844 120.8125 L 43.25 121.144531 L 40.808594 128.78125 L 39.773438 128.453125 L 40.9375 124.8125 L 37.183594 123.613281 L 36.019531 127.25 L 34.988281 126.921875 Z M 37.425781 119.28125 "/>
<path style=" stroke:none;fill-rule:nonzero;fill:rgb(0%,0%,0%);fill-opacity:1;" d="M 46.480469 124.828125 C 45.96875 124.691406 45.507812 124.78125 45.105469 125.101562 C 44.699219 125.417969 44.402344 125.925781 44.214844 126.621094 C 44.027344 127.316406 44.03125 127.902344 44.21875 128.382812 C 44.40625 128.859375 44.757812 129.171875 45.273438 129.308594 C 45.78125 129.445312 46.238281 129.351562 46.644531 129.03125 C 47.046875 128.710938 47.34375 128.203125 47.53125 127.511719 C 47.714844 126.824219 47.714844 126.238281 47.523438 125.757812 C 47.335938 125.273438 46.988281 124.964844 46.480469 124.828125 Z M 46.695312 124.019531 C 47.527344 124.242188 48.105469 124.6875 48.433594 125.355469 C 48.761719 126.019531 48.796875 126.832031 48.542969 127.785156 C 48.285156 128.734375 47.847656 129.417969 47.230469 129.832031 C 46.609375 130.246094 45.886719 130.339844 45.054688 130.117188 C 44.222656 129.894531 43.640625 129.449219 43.316406 128.777344 C 42.988281 128.109375 42.953125 127.300781 43.210938 126.351562 C 43.46875 125.394531 43.902344 124.714844 44.519531 124.300781 C 45.136719 123.886719 45.863281 123.792969 46.695312 124.019531 Z M 46.695312 124.019531 "/>
<path style=" stroke:none;fill-rule:nonzero;fill:rgb(0%,0%,0%);fill-opacity:1;" d="M 53.902344 126.886719 C 53.808594 126.796875 53.699219 126.726562 53.582031 126.664062 C 53.460938 126.605469 53.324219 126.558594 53.167969 126.523438 C 52.625 126.398438 52.167969 126.476562 51.792969 126.761719 C 51.417969 127.050781 51.15625 127.523438 51 128.1875 L 50.285156 131.273438 L 49.316406 131.046875 L 50.679688 125.1875 L 51.644531 125.414062 L 51.433594 126.324219 C 51.71875 126.015625 52.042969 125.8125 52.410156 125.714844 C 52.773438 125.617188 53.1875 125.625 53.652344 125.730469 C 53.71875 125.746094 53.789062 125.769531 53.867188 125.796875 C 53.945312 125.824219 54.03125 125.855469 54.125 125.898438 Z M 53.902344 126.886719 "/>
<path style=" stroke:none;fill-rule:nonzero;fill:rgb(0%,0%,0%);fill-opacity:1;" d="M 55 126.164062 L 55.96875 126.363281 L 54.742188 132.253906 L 53.773438 132.050781 Z M 55.476562 123.871094 L 56.445312 124.070312 L 56.191406 125.296875 L 55.222656 125.09375 Z M 55.476562 123.871094 "/>
<path style=" stroke:none;fill-rule:nonzero;fill:rgb(0%,0%,0%);fill-opacity:1;" d="M 57.402344 126.667969 L 62.023438 127.496094 L 61.867188 128.382812 L 57.445312 131.984375 L 61.101562 132.640625 L 60.960938 133.417969 L 56.210938 132.566406 L 56.371094 131.675781 L 60.789062 128.078125 L 57.265625 127.445312 Z M 57.402344 126.667969 "/>
<path style=" stroke:none;fill-rule:nonzero;fill:rgb(0%,0%,0%);fill-opacity:1;" d="M 65.488281 128.695312 C 64.960938 128.625 64.519531 128.773438 64.160156 129.140625 C 63.796875 129.507812 63.566406 130.050781 63.472656 130.761719 C 63.375 131.476562 63.449219 132.058594 63.695312 132.507812 C 63.945312 132.960938 64.332031 133.222656 64.859375 133.292969 C 65.382812 133.363281 65.824219 133.214844 66.183594 132.84375 C 66.546875 132.476562 66.773438 131.9375 66.871094 131.226562 C 66.96875 130.519531 66.890625 129.941406 66.644531 129.484375 C 66.394531 129.03125 66.007812 128.765625 65.488281 128.695312 Z M 65.601562 127.867188 C 66.453125 127.980469 67.082031 128.351562 67.492188 128.96875 C 67.90625 129.589844 68.042969 130.390625 67.910156 131.367188 C 67.777344 132.34375 67.429688 133.074219 66.867188 133.566406 C 66.304688 134.054688 65.597656 134.238281 64.746094 134.125 C 63.890625 134.007812 63.261719 133.636719 62.851562 133.015625 C 62.441406 132.394531 62.304688 131.597656 62.4375 130.621094 C 62.570312 129.640625 62.917969 128.910156 63.480469 128.421875 C 64.039062 127.933594 64.746094 127.75 65.601562 127.867188 Z M 65.601562 127.867188 "/>
<path style=" stroke:none;fill-rule:nonzero;fill:rgb(0%,0%,0%);fill-opacity:1;" d="M 74.410156 131.316406 L 74.109375 134.933594 L 73.125 134.851562 L 73.421875 131.265625 C 73.46875 130.699219 73.394531 130.265625 73.195312 129.964844 C 72.996094 129.664062 72.675781 129.496094 72.234375 129.457031 C 71.703125 129.414062 71.269531 129.550781 70.933594 129.863281 C 70.601562 130.175781 70.410156 130.625 70.359375 131.210938 L 70.082031 134.601562 L 69.089844 134.519531 L 69.585938 128.523438 L 70.574219 128.605469 L 70.5 129.535156 C 70.765625 129.195312 71.0625 128.949219 71.398438 128.796875 C 71.730469 128.644531 72.109375 128.585938 72.523438 128.621094 C 73.214844 128.675781 73.71875 128.933594 74.035156 129.390625 C 74.351562 129.84375 74.476562 130.488281 74.410156 131.316406 Z M 74.410156 131.316406 "/>
<path style=" stroke:none;fill-rule:nonzero;fill:rgb(0%,0%,0%);fill-opacity:1;" d="M 209.5 106.816406 L 210.960938 106.816406 L 214.519531 113.527344 L 214.519531 106.816406 L 215.570312 106.816406 L 215.570312 114.835938 L 214.109375 114.835938 L 210.554688 108.128906 L 210.554688 114.835938 L 209.5 114.835938 Z M 209.5 106.816406 "/>
<path style=" stroke:none;fill-rule:nonzero;fill:rgb(0%,0%,0%);fill-opacity:1;" d="M 162.941406 140.917969 L 161.820312 145.023438 L 164.757812 144.765625 Z M 162.238281 139.90625 L 163.464844 139.800781 L 167.203125 147.523438 L 166.082031 147.621094 L 165.175781 145.636719 L 161.574219 145.949219 L 161.023438 148.0625 L 159.882812 148.160156 Z M 162.238281 139.90625 "/>
<path style=" stroke:none;fill-rule:nonzero;fill:rgb(0%,0%,0%);fill-opacity:1;" d="M 166.539062 141.40625 L 171.117188 140.367188 L 171.316406 141.246094 L 168.652344 146.289062 L 172.277344 145.464844 L 172.453125 146.234375 L 167.742188 147.304688 L 167.542969 146.425781 L 170.207031 141.382812 L 166.714844 142.179688 Z M 166.539062 141.40625 "/>
<path style=" stroke:none;fill-rule:nonzero;fill:rgb(0%,0%,0%);fill-opacity:1;" d="M 172.183594 140.011719 L 173.128906 139.730469 L 174.847656 145.496094 L 173.898438 145.777344 Z M 171.515625 137.769531 L 172.460938 137.488281 L 172.820312 138.6875 L 171.871094 138.96875 Z M 171.515625 137.769531 "/>
<path style=" stroke:none;fill-rule:nonzero;fill:rgb(0%,0%,0%);fill-opacity:1;" d="M 179.46875 138.738281 C 179.539062 138.234375 179.699219 137.820312 179.941406 137.5 C 180.1875 137.179688 180.527344 136.9375 180.960938 136.769531 C 181.546875 136.542969 182.078125 136.574219 182.550781 136.863281 C 183.027344 137.148438 183.410156 137.671875 183.699219 138.425781 L 185.003906 141.816406 L 184.078125 142.171875 L 182.785156 138.8125 C 182.578125 138.273438 182.328125 137.914062 182.039062 137.726562 C 181.746094 137.539062 181.40625 137.519531 181.015625 137.667969 C 180.535156 137.855469 180.21875 138.15625 180.066406 138.582031 C 179.910156 139.007812 179.9375 139.492188 180.148438 140.039062 L 181.371094 143.214844 L 180.441406 143.570312 L 179.148438 140.210938 C 178.941406 139.671875 178.691406 139.308594 178.402344 139.121094 C 178.113281 138.933594 177.769531 138.917969 177.371094 139.070312 C 176.898438 139.253906 176.585938 139.558594 176.433594 139.984375 C 176.277344 140.410156 176.304688 140.894531 176.515625 141.4375 L 177.734375 144.613281 L 176.808594 144.96875 L 174.648438 139.355469 L 175.574219 138.996094 L 175.910156 139.871094 C 175.988281 139.445312 176.144531 139.09375 176.375 138.816406 C 176.605469 138.539062 176.921875 138.324219 177.328125 138.167969 C 177.734375 138.011719 178.121094 137.980469 178.488281 138.078125 C 178.851562 138.175781 179.179688 138.394531 179.46875 138.738281 Z M 179.46875 138.738281 "/>
<path style=" stroke:none;fill-rule:nonzero;fill:rgb(0%,0%,0%);fill-opacity:1;" d="M 185.660156 138.84375 L 184.078125 135.5625 L 184.96875 135.132812 L 186.535156 138.378906 C 186.78125 138.894531 187.066406 139.230469 187.390625 139.390625 C 187.714844 139.550781 188.074219 139.53125 188.476562 139.339844 C 188.957031 139.109375 189.261719 138.773438 189.394531 138.332031 C 189.523438 137.890625 189.460938 137.40625 189.207031 136.875 L 187.726562 133.804688 L 188.617188 133.375 L 191.230469 138.792969 L 190.339844 139.222656 L 189.9375 138.390625 C 189.878906 138.824219 189.746094 139.191406 189.539062 139.488281 C 189.328125 139.785156 189.035156 140.023438 188.660156 140.207031 C 188.035156 140.503906 187.472656 140.539062 186.960938 140.308594 C 186.453125 140.078125 186.019531 139.585938 185.660156 138.84375 Z M 185.660156 138.84375 "/>
<path style=" stroke:none;fill-rule:nonzero;fill:rgb(0%,0%,0%);fill-opacity:1;" d="M 190.230469 130.574219 L 191.039062 132.074219 L 192.832031 131.109375 L 193.195312 131.785156 L 191.40625 132.753906 L 192.957031 135.625 C 193.1875 136.058594 193.398438 136.304688 193.582031 136.363281 C 193.765625 136.421875 194.039062 136.351562 194.402344 136.15625 L 195.296875 135.675781 L 195.6875 136.402344 L 194.796875 136.886719 C 194.125 137.246094 193.59375 137.371094 193.203125 137.257812 C 192.8125 137.148438 192.4375 136.757812 192.082031 136.097656 L 190.53125 133.222656 L 189.894531 133.566406 L 189.527344 132.890625 L 190.167969 132.546875 L 189.355469 131.042969 Z M 190.230469 130.574219 "/>
<path style=" stroke:none;fill-rule:nonzero;fill:rgb(0%,0%,0%);fill-opacity:1;" d="M 199.253906 130.085938 L 201.121094 133.199219 L 200.273438 133.707031 L 198.421875 130.621094 C 198.128906 130.132812 197.816406 129.824219 197.480469 129.695312 C 197.144531 129.566406 196.785156 129.617188 196.40625 129.84375 C 195.949219 130.117188 195.675781 130.480469 195.585938 130.929688 C 195.496094 131.382812 195.601562 131.859375 195.902344 132.363281 L 197.652344 135.277344 L 196.796875 135.789062 L 192.503906 128.621094 L 193.355469 128.109375 L 195.039062 130.917969 C 195.054688 130.488281 195.15625 130.113281 195.339844 129.792969 C 195.523438 129.476562 195.792969 129.210938 196.152344 128.996094 C 196.746094 128.640625 197.304688 128.554688 197.828125 128.738281 C 198.351562 128.921875 198.828125 129.371094 199.253906 130.085938 Z M 199.253906 130.085938 "/>
<path style=" stroke:none;fill-rule:nonzero;fill:rgb(0%,0%,0%);fill-opacity:1;" d="M 157.308594 81.625 L 153.089844 81.078125 L 153.746094 83.953125 Z M 158.214844 80.789062 L 158.488281 81.988281 L 151.351562 86.753906 L 151.101562 85.65625 L 152.941406 84.484375 L 152.136719 80.960938 L 149.96875 80.707031 L 149.714844 79.59375 Z M 158.214844 80.789062 "/>
<path style=" stroke:none;fill-rule:nonzero;fill:rgb(0%,0%,0%);fill-opacity:1;" d="M 159.730469 86.371094 L 159.90625 87.34375 L 151.683594 88.84375 L 151.507812 87.871094 Z M 159.730469 86.371094 "/>
<path style=" stroke:none;fill-rule:nonzero;fill:rgb(0%,0%,0%);fill-opacity:1;" d="M 159.816406 90.683594 L 158.125 90.941406 L 158.429688 92.953125 L 157.671875 93.066406 L 157.367188 91.054688 L 154.136719 91.542969 C 153.652344 91.617188 153.351562 91.730469 153.234375 91.886719 C 153.117188 92.039062 153.085938 92.320312 153.148438 92.726562 L 153.300781 93.730469 L 152.484375 93.855469 L 152.332031 92.851562 C 152.21875 92.097656 152.28125 91.554688 152.515625 91.226562 C 152.753906 90.894531 153.246094 90.675781 153.988281 90.5625 L 157.21875 90.074219 L 157.109375 89.355469 L 157.871094 89.242188 L 157.976562 89.957031 L 159.667969 89.703125 Z M 159.816406 90.683594 "/>
<path style=" stroke:none;fill-rule:nonzero;fill:rgb(0%,0%,0%);fill-opacity:1;" d="M 158.613281 94.425781 L 158.730469 95.40625 L 152.757812 96.132812 L 152.640625 95.148438 Z M 160.9375 94.140625 L 161.054688 95.121094 L 159.8125 95.273438 L 159.695312 94.292969 Z M 160.9375 94.140625 "/>
<path style=" stroke:none;fill-rule:nonzero;fill:rgb(0%,0%,0%);fill-opacity:1;" d="M 160.769531 98.445312 L 159.066406 98.601562 L 159.253906 100.628906 L 158.492188 100.699219 L 158.304688 98.671875 L 155.050781 98.972656 C 154.5625 99.015625 154.253906 99.113281 154.128906 99.261719 C 154 99.40625 153.957031 99.683594 153.996094 100.09375 L 154.089844 101.105469 L 153.265625 101.183594 L 153.171875 100.171875 C 153.101562 99.410156 153.195312 98.875 153.453125 98.558594 C 153.707031 98.246094 154.210938 98.050781 154.960938 97.984375 L 158.210938 97.683594 L 158.144531 96.960938 L 158.910156 96.890625 L 158.976562 97.613281 L 160.675781 97.453125 Z M 160.769531 98.445312 "/>
<path style=" stroke:none;fill-rule:nonzero;fill:rgb(0%,0%,0%);fill-opacity:1;" d="M 155.734375 102.269531 L 159.371094 102.09375 L 159.421875 103.082031 L 155.820312 103.253906 C 155.25 103.28125 154.832031 103.410156 154.558594 103.648438 C 154.285156 103.882812 154.15625 104.222656 154.179688 104.664062 C 154.203125 105.199219 154.394531 105.613281 154.75 105.90625 C 155.101562 106.199219 155.574219 106.328125 156.160156 106.300781 L 159.566406 106.136719 L 159.613281 107.125 L 153.605469 107.414062 L 153.558594 106.425781 L 154.480469 106.382812 C 154.105469 106.160156 153.820312 105.894531 153.628906 105.585938 C 153.4375 105.277344 153.328125 104.914062 153.308594 104.496094 C 153.277344 103.808594 153.464844 103.273438 153.878906 102.894531 C 154.289062 102.515625 154.910156 102.308594 155.734375 102.269531 Z M 155.734375 102.269531 "/>
<path style=" stroke:none;fill-rule:nonzero;fill:rgb(0%,0%,0%);fill-opacity:1;" d="M 158.71875 113.460938 L 161.972656 113.488281 L 161.964844 114.476562 L 153.609375 114.40625 L 153.617188 113.417969 L 154.519531 113.425781 C 154.160156 113.214844 153.898438 112.953125 153.726562 112.632812 C 153.554688 112.316406 153.472656 111.933594 153.476562 111.488281 C 153.480469 110.761719 153.777344 110.171875 154.359375 109.722656 C 154.945312 109.269531 155.710938 109.046875 156.65625 109.054688 C 157.601562 109.0625 158.359375 109.296875 158.9375 109.757812 C 159.511719 110.21875 159.796875 110.8125 159.792969 111.542969 C 159.789062 111.984375 159.699219 112.363281 159.523438 112.679688 C 159.347656 112.996094 159.078125 113.257812 158.71875 113.460938 Z M 156.644531 110.074219 C 155.917969 110.070312 155.347656 110.214844 154.933594 110.511719 C 154.515625 110.804688 154.304688 111.214844 154.300781 111.738281 C 154.296875 112.261719 154.5 112.675781 154.910156 112.976562 C 155.324219 113.28125 155.890625 113.4375 156.617188 113.445312 C 157.34375 113.449219 157.917969 113.304688 158.332031 113.007812 C 158.75 112.707031 158.957031 112.296875 158.964844 111.777344 C 158.96875 111.253906 158.765625 110.839844 158.351562 110.539062 C 157.941406 110.234375 157.371094 110.082031 156.644531 110.074219 Z M 156.644531 110.074219 "/>
<path style=" stroke:none;fill-rule:nonzero;fill:rgb(0%,0%,0%);fill-opacity:1;" d="M 156.425781 121.800781 L 155.945312 121.765625 L 156.253906 117.234375 C 155.574219 117.230469 155.042969 117.398438 154.664062 117.738281 C 154.28125 118.082031 154.070312 118.578125 154.023438 119.234375 C 154 119.613281 154.019531 119.980469 154.089844 120.34375 C 154.15625 120.707031 154.273438 121.066406 154.433594 121.429688 L 153.5 121.367188 C 153.375 121.003906 153.285156 120.632812 153.234375 120.253906 C 153.179688 119.878906 153.167969 119.5 153.191406 119.117188 C 153.257812 118.160156 153.589844 117.421875 154.183594 116.898438 C 154.78125 116.378906 155.554688 116.152344 156.503906 116.214844 C 157.484375 116.285156 158.246094 116.601562 158.789062 117.171875 C 159.328125 117.742188 159.566406 118.476562 159.503906 119.378906 C 159.449219 120.183594 159.148438 120.804688 158.59375 121.238281 C 158.042969 121.671875 157.320312 121.859375 156.425781 121.800781 Z M 156.785156 120.832031 C 157.324219 120.863281 157.765625 120.742188 158.105469 120.46875 C 158.449219 120.195312 158.636719 119.816406 158.667969 119.332031 C 158.707031 118.78125 158.582031 118.328125 158.292969 117.976562 C 158.003906 117.625 157.582031 117.40625 157.019531 117.316406 Z M 156.785156 120.832031 "/>
</g>
</svg>
